<svg xmlns="http://www.w3.org/2000/svg" xmlns:xlink="http://www.w3.org/1999/xlink" width="500" zoomAndPan="magnify" viewBox="0 0 375 374.999991" height="500" preserveAspectRatio="xMidYMid meet" version="1.0"><defs><clipPath id="6243b42fe4"><path d="M 86 75 L 304 75 L 304 279 L 86 279 Z M 86 75 " clip-rule="nonzero"/></clipPath><clipPath id="058bf0686a"><path d="M 113.984375 66.386719 L 325.039062 153.5 L 261.121094 308.351562 L 50.070312 221.238281 Z M 113.984375 66.386719 " clip-rule="nonzero"/></clipPath><clipPath id="736b20edf2"><path d="M 138.46875 94.019531 C 132.648438 112.714844 133.269531 120.539062 133.488281 124.765625 C 133.605469 127.199219 133.5625 127.8125 134.113281 130.558594 C 135.429688 137.554688 141.746094 159.785156 144.53125 167.804688 C 145.921875 171.742188 146.648438 173.375 148.121094 176.433594 C 149.921875 180.050781 152.644531 185.171875 154.574219 188.140625 C 155.910156 190.164062 156.917969 191.632812 158.238281 193.015625 C 159.488281 194.234375 160.144531 194.855469 162.066406 196.140625 C 167.046875 199.527344 181.398438 207.203125 190.222656 211.476562 C 197.773438 215.082031 203.996094 218.003906 211.648438 220.527344 C 219.835938 223.277344 232.277344 226.242188 237.914062 227.023438 C 240.496094 227.390625 241.238281 227.628906 243.710938 227.246094 C 248.398438 226.585938 256.328125 224.183594 263.527344 220.496094 C 273.644531 215.347656 291.703125 197.917969 297.359375 196.609375 C 299.070312 196.195312 300.039062 196.734375 300.972656 197.191406 C 301.789062 197.597656 302.359375 198.253906 302.785156 198.917969 C 303.183594 199.644531 303.539062 200.140625 303.503906 201.25 C 303.535156 204.066406 300.472656 211.140625 298.53125 216.019531 C 296.585938 220.894531 294.347656 226.488281 291.945312 230.613281 C 289.972656 233.863281 288.132812 236.117188 285.667969 239.027344 C 282.753906 242.519531 279.394531 246.25 275.324219 249.824219 C 270.523438 254.152344 263.726562 259.410156 258.433594 262.898438 C 254.140625 265.824219 250.324219 268.105469 246.273438 269.9375 C 242.585938 271.570312 239.0625 272.636719 235.273438 273.667969 C 231.339844 274.707031 226.976562 275.429688 222.925781 276.070312 C 219.082031 276.726562 215.632812 277.265625 211.441406 277.570312 C 206.445312 277.960938 200.054688 278.335938 194.871094 277.808594 C 190.28125 277.386719 187.027344 276.605469 181.921875 275.058594 C 174.222656 272.652344 160.929688 266.8125 153.640625 263.59375 C 148.980469 261.460938 146.5625 260.53125 142.316406 258.078125 C 136.339844 254.5625 126.667969 247.765625 121.550781 243.691406 C 118.28125 241.078125 116.246094 239.046875 113.925781 236.6875 C 111.796875 234.546875 110.011719 232.757812 108.078125 230.140625 C 105.625 226.742188 103.167969 222.855469 100.792969 217.738281 C 97.289062 210.265625 92.644531 195.871094 90.6875 188.898438 C 89.539062 185.058594 89.21875 183.453125 88.632812 179.777344 C 87.707031 174.210938 86.621094 164.789062 86.351562 158.648438 C 86.148438 153.871094 86.539062 149.195312 86.707031 145.898438 C 86.839844 143.710938 86.800781 142.785156 87.136719 140.609375 C 87.667969 137.113281 88.558594 131.734375 90.140625 126.710938 C 92.039062 120.414062 95.199219 111.90625 98.296875 106.105469 C 100.800781 101.390625 104.085938 97 106.523438 94.152344 C 108.132812 92.292969 109.273438 91.570312 111.046875 89.988281 C 113.523438 87.71875 116.941406 84.363281 120.238281 82.148438 C 123.367188 80.003906 127.085938 77.617188 130.105469 76.757812 C 132.46875 76.121094 135.039062 75.5 136.738281 76.480469 C 138.554688 77.511719 139.984375 81.1875 140.304688 83.632812 C 140.582031 85.847656 139.804688 88.75 139.050781 90.402344 C 138.546875 91.457031 137.765625 92.328125 137.136719 92.835938 C 136.636719 93.191406 136.15625 93.34375 135.671875 93.496094 C 135.128906 93.621094 134.671875 93.710938 134.082031 93.609375 C 133.207031 93.527344 131.921875 93.070312 131.207031 92.421875 C 130.433594 91.753906 129.820312 90.519531 129.589844 89.722656 C 129.402344 89.15625 129.480469 88.625 129.558594 88.097656 C 129.613281 87.628906 129.691406 87.101562 129.972656 86.585938 C 130.414062 85.859375 131.269531 84.808594 132.164062 84.335938 C 133.058594 83.863281 134.324219 83.6875 135.296875 83.878906 C 136.269531 84.070312 137.359375 84.660156 138.023438 85.421875 C 138.714844 86.128906 139.207031 87.3125 139.304688 88.265625 C 139.375 89.277344 138.976562 90.582031 138.597656 91.335938 C 138.3125 91.851562 138.046875 92.160156 137.546875 92.515625 C 136.855469 93.003906 135.625 93.613281 134.636719 93.628906 C 133.625 93.703125 132.378906 93.328125 131.578125 92.714844 C 130.8125 92.191406 130.042969 91.171875 129.742188 90.207031 C 129.414062 89.300781 129.335938 87.792969 129.773438 87.066406 C 130.25 86.421875 132.421875 85.914062 132.421875 85.914062 C 132.457031 86 128.761719 87.488281 126.457031 88.992188 C 122.882812 91.371094 117.082031 95.914062 113.515625 99.628906 C 110.4375 102.84375 108.1875 105.910156 105.96875 109.761719 C 103.492188 114.066406 101.316406 120.179688 99.769531 124.445312 C 98.578125 127.667969 97.886719 130.1875 97.136719 133.03125 C 96.320312 135.851562 95.585938 138.140625 95.070312 141.429688 C 94.382812 145.984375 93.921875 152.871094 93.960938 158.214844 C 93.957031 162.980469 94.292969 167.253906 94.855469 171.832031 C 95.464844 176.640625 96.203125 180.800781 97.707031 186.328125 C 99.847656 194.21875 104.25 207.320312 107.410156 214.441406 C 109.429688 219.0625 111.328125 222.4375 113.375 225.457031 C 115.09375 227.917969 116.6875 229.488281 118.664062 231.496094 C 120.796875 233.636719 122.640625 235.449219 125.71875 237.839844 C 130.585938 241.671875 139.765625 248.125 145.519531 251.339844 C 149.609375 253.660156 151.96875 254.5625 156.582031 256.46875 C 163.648438 259.382812 176.980469 264.605469 184.082031 266.765625 C 188.386719 268.054688 190.785156 268.691406 194.738281 269.132812 C 199.449219 269.605469 205.699219 269.242188 210.492188 268.835938 C 214.394531 268.554688 217.550781 268.035156 221.167969 267.425781 C 224.894531 266.71875 229.332031 265.816406 232.433594 264.925781 C 234.714844 264.324219 236.238281 263.691406 238.328125 262.871094 C 240.730469 261.972656 243.667969 260.800781 246.101562 259.492188 C 248.425781 258.277344 249.890625 257.273438 252.511719 255.339844 C 257.121094 251.984375 265.445312 245.398438 270.675781 240.199219 C 275.285156 235.652344 279.03125 232.011719 282.707031 226.167969 C 287.445312 218.589844 291.597656 200.890625 295.167969 197.667969 C 296.398438 196.5625 297.585938 196.5625 298.660156 196.515625 C 299.5 196.511719 300.246094 196.75 300.972656 197.191406 C 301.859375 197.765625 302.855469 199.089844 303.300781 200.042969 C 303.59375 200.863281 303.679688 201.671875 303.480469 202.5 C 303.203125 203.507812 302.613281 204.597656 301.617188 205.65625 C 299.945312 207.492188 297.101562 209.121094 293.644531 211.546875 C 287.230469 216.050781 271.460938 226.921875 266.011719 229.929688 C 263.859375 231.074219 263.460938 231.191406 261.332031 231.925781 C 257.105469 233.335938 246.296875 236.09375 241.816406 236.417969 C 239.503906 236.582031 238.964844 236.359375 236.527344 235.984375 C 230.824219 235.03125 216.886719 231.945312 208.136719 229.035156 C 200.214844 226.324219 194.039062 223.285156 186.152344 219.46875 C 176.550781 214.875 161.203125 207.910156 154.882812 202.847656 C 151.484375 200.042969 150.515625 198.3125 148.207031 194.90625 C 144.734375 189.898438 140.761719 182.71875 137.394531 174.742188 C 132.914062 164.199219 126.851562 143.054688 125.300781 136.457031 C 124.734375 134.257812 124.773438 133.996094 124.507812 131.921875 C 124.085938 127.683594 123.453125 117.328125 123.664062 112.230469 C 123.75 108.96875 123.964844 106.746094 124.484375 104.296875 C 124.964844 102.113281 125.769531 100.339844 126.574219 98.21875 C 127.5 95.800781 128.695312 92.226562 129.847656 90.460938 C 130.582031 89.359375 131.273438 88.527344 132.109375 88.03125 C 132.8125 87.6875 133.523438 87.492188 134.316406 87.609375 C 135.28125 87.65625 136.621094 88.140625 137.371094 88.871094 C 138.144531 89.539062 138.648438 90.867188 138.808594 91.84375 C 138.917969 92.59375 138.46875 94.019531 138.46875 94.019531 " clip-rule="nonzero"/></clipPath><clipPath id="89cb9d08f8"><path d="M 0 0.359375 L 217.839844 0.359375 L 217.839844 203.398438 L 0 203.398438 Z M 0 0.359375 " clip-rule="nonzero"/></clipPath><clipPath id="a32aa5f18e"><path d="M 27.984375 -8.613281 L 239.039062 78.5 L 175.121094 233.351562 L -35.929688 146.238281 Z M 27.984375 -8.613281 " clip-rule="nonzero"/></clipPath><clipPath id="73f720e492"><path d="M 52.46875 19.019531 C 46.648438 37.714844 47.269531 45.539062 47.488281 49.765625 C 47.605469 52.199219 47.5625 52.8125 48.113281 55.558594 C 49.429688 62.554688 55.746094 84.785156 58.53125 92.804688 C 59.921875 96.742188 60.648438 98.375 62.121094 101.433594 C 63.921875 105.050781 66.644531 110.171875 68.574219 113.140625 C 69.910156 115.164062 70.917969 116.632812 72.238281 118.015625 C 73.488281 119.234375 74.144531 119.855469 76.066406 121.140625 C 81.046875 124.527344 95.398438 132.203125 104.222656 136.476562 C 111.773438 140.082031 117.996094 143.003906 125.648438 145.527344 C 133.835938 148.277344 146.277344 151.242188 151.914062 152.023438 C 154.496094 152.390625 155.238281 152.628906 157.710938 152.246094 C 162.398438 151.585938 170.328125 149.183594 177.527344 145.496094 C 187.644531 140.347656 205.703125 122.917969 211.359375 121.609375 C 213.070312 121.195312 214.039062 121.734375 214.972656 122.191406 C 215.789062 122.597656 216.359375 123.253906 216.785156 123.917969 C 217.183594 124.644531 217.539062 125.140625 217.503906 126.25 C 217.535156 129.066406 214.472656 136.140625 212.53125 141.019531 C 210.585938 145.894531 208.347656 151.488281 205.945312 155.613281 C 203.972656 158.863281 202.132812 161.117188 199.667969 164.027344 C 196.753906 167.519531 193.394531 171.25 189.324219 174.824219 C 184.523438 179.152344 177.726562 184.410156 172.433594 187.898438 C 168.140625 190.824219 164.324219 193.105469 160.273438 194.9375 C 156.585938 196.570312 153.0625 197.636719 149.273438 198.667969 C 145.339844 199.707031 140.976562 200.429688 136.925781 201.070312 C 133.082031 201.726562 129.632812 202.265625 125.441406 202.570312 C 120.445312 202.960938 114.054688 203.335938 108.871094 202.808594 C 104.28125 202.386719 101.027344 201.605469 95.921875 200.058594 C 88.222656 197.652344 74.929688 191.8125 67.640625 188.59375 C 62.980469 186.460938 60.5625 185.53125 56.316406 183.078125 C 50.339844 179.5625 40.667969 172.765625 35.550781 168.691406 C 32.28125 166.078125 30.246094 164.046875 27.925781 161.6875 C 25.796875 159.546875 24.011719 157.757812 22.078125 155.140625 C 19.625 151.742188 17.167969 147.855469 14.792969 142.738281 C 11.289062 135.265625 6.644531 120.871094 4.6875 113.898438 C 3.539062 110.058594 3.21875 108.453125 2.632812 104.777344 C 1.707031 99.210938 0.621094 89.789062 0.351562 83.648438 C 0.148438 78.871094 0.539062 74.195312 0.707031 70.898438 C 0.839844 68.710938 0.800781 67.785156 1.136719 65.609375 C 1.667969 62.113281 2.558594 56.734375 4.140625 51.710938 C 6.039062 45.414062 9.199219 36.90625 12.296875 31.105469 C 14.800781 26.390625 18.085938 22 20.523438 19.152344 C 22.132812 17.292969 23.273438 16.570312 25.046875 14.988281 C 27.523438 12.71875 30.941406 9.363281 34.238281 7.148438 C 37.367188 5.003906 41.085938 2.617188 44.105469 1.757812 C 46.46875 1.121094 49.039062 0.5 50.738281 1.480469 C 52.554688 2.511719 53.984375 6.1875 54.304688 8.632812 C 54.582031 10.847656 53.804688 13.75 53.050781 15.402344 C 52.546875 16.457031 51.765625 17.328125 51.136719 17.835938 C 50.636719 18.191406 50.15625 18.34375 49.671875 18.496094 C 49.128906 18.621094 48.671875 18.710938 48.082031 18.609375 C 47.207031 18.527344 45.921875 18.070312 45.207031 17.421875 C 44.433594 16.753906 43.820312 15.519531 43.589844 14.722656 C 43.402344 14.15625 43.480469 13.625 43.558594 13.097656 C 43.613281 12.628906 43.691406 12.101562 43.972656 11.585938 C 44.414062 10.859375 45.269531 9.808594 46.164062 9.335938 C 47.058594 8.863281 48.324219 8.6875 49.296875 8.878906 C 50.269531 9.070312 51.359375 9.660156 52.023438 10.421875 C 52.714844 11.128906 53.207031 12.3125 53.304688 13.265625 C 53.375 14.277344 52.976562 15.582031 52.597656 16.335938 C 52.3125 16.851562 52.046875 17.160156 51.546875 17.515625 C 50.855469 18.003906 49.625 18.613281 48.636719 18.628906 C 47.625 18.703125 46.378906 18.328125 45.578125 17.714844 C 44.8125 17.191406 44.042969 16.171875 43.742188 15.207031 C 43.414062 14.300781 43.335938 12.792969 43.773438 12.066406 C 44.25 11.421875 46.421875 10.914062 46.421875 10.914062 C 46.457031 11 42.761719 12.488281 40.457031 13.992188 C 36.882812 16.371094 31.082031 20.914062 27.515625 24.628906 C 24.4375 27.84375 22.1875 30.910156 19.96875 34.761719 C 17.492188 39.066406 15.316406 45.179688 13.769531 49.445312 C 12.578125 52.667969 11.886719 55.1875 11.136719 58.03125 C 10.320312 60.851562 9.585938 63.140625 9.070312 66.429688 C 8.382812 70.984375 7.921875 77.871094 7.960938 83.214844 C 7.957031 87.980469 8.292969 92.253906 8.855469 96.832031 C 9.464844 101.640625 10.203125 105.800781 11.707031 111.328125 C 13.847656 119.21875 18.25 132.320312 21.410156 139.441406 C 23.429688 144.0625 25.328125 147.4375 27.375 150.457031 C 29.09375 152.917969 30.6875 154.488281 32.664062 156.496094 C 34.796875 158.636719 36.640625 160.449219 39.71875 162.839844 C 44.585938 166.671875 53.765625 173.125 59.519531 176.339844 C 63.609375 178.660156 65.96875 179.5625 70.582031 181.46875 C 77.648438 184.382812 90.980469 189.605469 98.082031 191.765625 C 102.386719 193.054688 104.785156 193.691406 108.738281 194.132812 C 113.449219 194.605469 119.699219 194.242188 124.492188 193.835938 C 128.394531 193.554688 131.550781 193.035156 135.167969 192.425781 C 138.894531 191.71875 143.332031 190.816406 146.433594 189.925781 C 148.714844 189.324219 150.238281 188.691406 152.328125 187.871094 C 154.730469 186.972656 157.667969 185.800781 160.101562 184.492188 C 162.425781 183.277344 163.890625 182.273438 166.511719 180.339844 C 171.121094 176.984375 179.445312 170.398438 184.675781 165.199219 C 189.285156 160.652344 193.03125 157.011719 196.707031 151.167969 C 201.445312 143.589844 205.597656 125.890625 209.167969 122.667969 C 210.398438 121.5625 211.585938 121.5625 212.660156 121.515625 C 213.5 121.511719 214.246094 121.75 214.972656 122.191406 C 215.859375 122.765625 216.855469 124.089844 217.300781 125.042969 C 217.59375 125.863281 217.679688 126.671875 217.480469 127.5 C 217.203125 128.507812 216.613281 129.597656 215.617188 130.65625 C 213.945312 132.492188 211.101562 134.121094 207.644531 136.546875 C 201.230469 141.050781 185.460938 151.921875 180.011719 154.929688 C 177.859375 156.074219 177.460938 156.191406 175.332031 156.925781 C 171.105469 158.335938 160.296875 161.09375 155.816406 161.417969 C 153.503906 161.582031 152.964844 161.359375 150.527344 160.984375 C 144.824219 160.03125 130.886719 156.945312 122.136719 154.035156 C 114.214844 151.324219 108.039062 148.285156 100.152344 144.46875 C 90.550781 139.875 75.203125 132.910156 68.882812 127.847656 C 65.484375 125.042969 64.515625 123.3125 62.207031 119.90625 C 58.734375 114.898438 54.761719 107.71875 51.394531 99.742188 C 46.914062 89.199219 40.851562 68.054688 39.300781 61.457031 C 38.734375 59.257812 38.773438 58.996094 38.507812 56.921875 C 38.085938 52.683594 37.453125 42.328125 37.664062 37.230469 C 37.75 33.96875 37.964844 31.746094 38.484375 29.296875 C 38.964844 27.113281 39.769531 25.339844 40.574219 23.21875 C 41.5 20.800781 42.695312 17.226562 43.847656 15.460938 C 44.582031 14.359375 45.273438 13.527344 46.109375 13.03125 C 46.8125 12.6875 47.523438 12.492188 48.316406 12.609375 C 49.28125 12.65625 50.621094 13.140625 51.371094 13.871094 C 52.144531 14.539062 52.648438 15.867188 52.808594 16.84375 C 52.917969 17.59375 52.46875 19.019531 52.46875 19.019531 " clip-rule="nonzero"/></clipPath><clipPath id="9325ed3297"><rect x="0" width="218" y="0" height="204"/></clipPath></defs><g clip-path="url(#6243b42fe4)"><g clip-path="url(#058bf0686a)"><g clip-path="url(#736b20edf2)"><g transform="matrix(1, 0, 0, 1, 86, 75)"><g clip-path="url(#9325ed3297)"><g clip-path="url(#89cb9d08f8)"><g clip-path="url(#a32aa5f18e)"><g clip-path="url(#73f720e492)"><path fill="#1e1e1e" d="M 26.933594 -11.148438 L 241.574219 77.445312 L 176.175781 235.886719 L -38.464844 147.292969 Z M 26.933594 -11.148438 " fill-opacity="1" fill-rule="nonzero"/></g></g></g></g></g></g></g></g></svg>