<svg xmlns="http://www.w3.org/2000/svg" xmlns:xlink="http://www.w3.org/1999/xlink" width="500" zoomAndPan="magnify" viewBox="0 0 375 374.999991" height="500" preserveAspectRatio="xMidYMid meet" version="1.0"><defs><clipPath id="071fb838dd"><path d="M 25 24 L 374 24 L 374 356 L 25 356 Z M 25 24 " clip-rule="nonzero"/></clipPath><clipPath id="0e83f10cd5"><path d="M 34.875 353.324219 C 42.824219 333.074219 43.949219 329.925781 45 324.898438 C 46.574219 317.851562 47.851562 306.300781 48.75 299.023438 C 49.5 293.625 49.949219 290.773438 50.398438 285 C 51.074219 275.550781 50.550781 259.574219 51.523438 247.574219 C 52.351562 236.476562 57.75 217.800781 55.574219 215.625 C 54.976562 215.023438 53.851562 215.398438 52.800781 215.925781 C 50.699219 217.050781 47.476562 221.476562 44.925781 224.699219 C 42.300781 228.148438 39.523438 232.351562 37.351562 236.101562 C 35.25 239.699219 33.375 243.300781 31.875 246.824219 C 30.449219 250.125 28.050781 254.324219 28.5 256.648438 C 28.800781 258.226562 30.148438 259.125 31.5 260.101562 C 33.226562 261.226562 35.175781 261.75 38.175781 262.574219 C 44.324219 264.300781 58.050781 265.125 66.449219 267.898438 C 73.648438 270.300781 80.324219 274.351562 85.800781 277.351562 C 90.074219 279.675781 93.523438 281.398438 96.976562 283.949219 C 100.425781 286.5 103.574219 289.199219 106.425781 292.5 C 109.5 296.023438 112.351562 300.675781 114.601562 304.5 C 116.550781 307.726562 118.125 310.574219 119.25 313.800781 C 120.300781 316.875 120.75 319.726562 121.273438 323.175781 C 121.949219 327.375 122.699219 333.675781 122.476562 337.199219 C 122.324219 339.375 122.175781 341.023438 121.273438 342.449219 C 120.300781 343.949219 118.425781 345.074219 116.550781 345.824219 C 114.300781 346.800781 111.226562 347.175781 108.226562 347.175781 C 104.851562 347.25 101.023438 347.175781 97.425781 345.824219 C 92.925781 344.101562 87.375 339.75 83.773438 336.375 C 80.851562 333.675781 78.75 331.273438 76.875 327.75 C 74.550781 323.324219 73.050781 317.476562 71.925781 311.398438 C 70.5 304.199219 70.050781 294.976562 69.898438 287.324219 C 69.675781 280.351562 70.125 273.375 70.5 267.375 C 70.800781 262.5 70.875 259.273438 71.925781 254.023438 C 73.351562 246.226562 77.101562 233.773438 79.949219 225.523438 C 82.199219 219.074219 84.75 210.148438 87 208.574219 C 87.824219 208.050781 88.648438 208.050781 89.476562 208.5 C 90.824219 209.324219 92.101562 212.550781 93.226562 215.175781 C 94.726562 218.625 94.949219 221.851562 96.898438 227.324219 C 101.023438 239.476562 112.125 267.449219 119.101562 284.625 C 124.875 298.800781 134.699219 319.199219 135.675781 323.175781 C 135.824219 323.851562 135.898438 324 135.75 324.375 C 135.601562 324.824219 135.074219 325.425781 134.625 325.5 C 134.101562 325.648438 133.199219 325.425781 132.675781 324.976562 C 131.925781 324.148438 131.925781 322.5 131.25 320.25 C 129.601562 314.550781 125.101562 298.574219 123 290.398438 C 121.574219 284.773438 120 279 119.699219 276.074219 C 119.625 274.800781 119.550781 274.050781 119.925781 273.226562 C 120.300781 272.476562 121.125 271.875 122.023438 271.351562 C 123.074219 270.824219 124.425781 270.601562 125.851562 270.300781 C 127.726562 270 130.648438 269.476562 132.449219 269.699219 C 133.648438 269.851562 134.625 270 135.523438 270.824219 C 136.800781 272.101562 137.476562 274.648438 138.523438 277.5 C 140.398438 282.300781 142.800781 292.351562 144.75 297.675781 C 146.023438 301.125 147.226562 304.5 148.425781 306.226562 C 148.949219 307.050781 149.851562 307.273438 150.074219 307.875 C 150.226562 308.398438 150.148438 309.226562 149.851562 309.675781 C 149.550781 310.125 148.800781 310.5 148.273438 310.5 C 147.75 310.5 146.925781 310.273438 146.699219 309.675781 C 145.949219 307.875 150.375 300.601562 151.273438 295.949219 C 152.175781 291.375 152.101562 286.574219 152.175781 282 C 152.25 277.648438 152.398438 273.148438 151.800781 269.023438 C 151.273438 265.273438 150.449219 261.898438 149.175781 258.226562 C 147.75 254.324219 143.925781 248.625 143.476562 246.523438 C 143.324219 245.773438 143.324219 245.324219 143.625 244.875 C 143.925781 244.425781 144.898438 244.050781 145.425781 244.125 C 145.875 244.125 146.476562 244.574219 146.699219 245.101562 C 146.925781 245.773438 145.949219 246.675781 145.875 248.25 C 145.648438 252.75 148.125 267.300781 149.476562 274.574219 C 150.375 279.898438 151.273438 285.675781 152.550781 288.300781 C 153.148438 289.5 153.75 290.625 154.425781 290.625 C 155.175781 290.625 156.148438 289.125 156.75 287.925781 C 157.574219 286.425781 158.023438 284.101562 158.476562 281.851562 C 158.925781 279.226562 159.074219 275.925781 159.300781 273 C 159.523438 270.074219 159.976562 267.601562 159.675781 264.375 C 159.300781 260.175781 156.300781 252.601562 156.375 250.199219 C 156.449219 249.375 156.523438 248.925781 156.898438 248.550781 C 157.273438 248.175781 158.023438 247.949219 158.550781 248.023438 C 159.074219 248.101562 159.523438 248.476562 159.898438 249.074219 C 160.875 250.425781 161.101562 254.023438 162.226562 257.175781 C 163.875 261.898438 169.875 271.875 169.5 274.5 C 169.425781 275.398438 168.824219 276 168.226562 276.074219 C 167.699219 276.226562 166.574219 275.925781 166.125 275.101562 C 164.925781 273.148438 167.023438 265.199219 166.875 260.699219 C 166.726562 256.574219 166.648438 254.023438 165.523438 248.925781 C 163.199219 238.949219 153.449219 216.75 150 205.5 C 147.824219 198.449219 145.574219 190.800781 145.574219 188.101562 C 145.574219 187.351562 145.648438 186.898438 146.023438 186.523438 C 146.324219 186.226562 147.074219 185.925781 147.523438 186 C 148.050781 186.074219 148.425781 186.300781 148.875 186.976562 C 150.148438 188.851562 151.125 196.050781 152.699219 200.699219 C 154.425781 205.574219 156.074219 209.101562 158.773438 215.398438 C 163.726562 226.949219 179.773438 259.351562 180.824219 263.851562 C 180.976562 264.523438 180.976562 264.75 180.824219 265.125 C 180.675781 265.5 180.148438 266.175781 179.625 266.25 C 179.101562 266.324219 178.351562 266.023438 177.601562 265.199219 C 174.976562 262.273438 169.800781 244.125 168.074219 237.898438 C 167.175781 234.824219 166.125 232.199219 166.5 230.851562 C 166.726562 230.101562 167.398438 229.5 167.925781 229.425781 C 168.523438 229.351562 169.199219 230.550781 169.949219 230.625 C 170.925781 230.699219 172.050781 229.351562 173.398438 229.351562 C 175.273438 229.273438 177.824219 230.476562 180.226562 231.523438 C 183.148438 232.875 187.199219 234.824219 189.523438 236.773438 C 191.398438 238.351562 193.199219 240.375 193.726562 241.800781 C 193.949219 242.625 193.949219 243.449219 193.648438 243.976562 C 193.351562 244.425781 192.601562 244.726562 192.074219 244.726562 C 191.550781 244.726562 190.875 244.574219 190.574219 243.898438 C 189.523438 241.800781 192.75 231.976562 193.5 225.898438 C 194.25 219.523438 195.148438 211.5 195.074219 206.398438 C 195.074219 203.175781 194.925781 201 194.175781 198.449219 C 193.5 195.976562 191.476562 191.25 190.648438 191.398438 C 188.925781 191.773438 189.601562 219.523438 189.898438 226.273438 C 190.050781 228.976562 190.125 230.398438 190.574219 232.050781 C 190.949219 233.25 191.398438 234.375 192.226562 235.050781 C 193.050781 235.800781 194.773438 236.773438 195.824219 236.398438 C 197.023438 235.949219 197.925781 233.925781 198.601562 231.824219 C 199.800781 228.300781 200.101562 220.125 199.875 216.375 C 199.726562 214.273438 198.75 212.699219 198.824219 211.5 C 198.824219 210.824219 198.976562 210.226562 199.351562 209.925781 C 199.726562 209.550781 200.476562 209.324219 201 209.398438 C 201.375 209.476562 201.675781 209.625 202.050781 210.074219 C 203.25 211.5 206.625 218.550781 206.476562 220.800781 C 206.324219 222 205.199219 223.425781 204.898438 223.351562 C 204.074219 223.050781 209.023438 202.273438 210.226562 192.300781 C 211.425781 183.148438 212.175781 172.273438 212.398438 165.75 C 212.550781 162 212.699219 159.75 212.324219 156.898438 C 211.949219 154.273438 210.601562 151.199219 210.449219 149.398438 C 210.375 148.425781 211.050781 147.601562 210.75 147.148438 C 210.449219 146.625 209.023438 146.699219 208.800781 146.25 C 208.574219 145.875 208.726562 145.050781 209.023438 144.601562 C 209.324219 144.226562 210.375 143.851562 210.898438 143.925781 C 211.425781 144.074219 211.648438 144.300781 212.101562 145.125 C 215.25 150.226562 230.550781 206.550781 230.324219 212.925781 C 230.324219 214.050781 230.175781 214.5 229.726562 214.800781 C 229.199219 215.101562 227.925781 215.175781 227.398438 214.574219 C 226.425781 213.523438 227.773438 208.425781 227.550781 205.5 C 227.324219 202.800781 226.574219 200.851562 226.199219 197.773438 C 225.675781 193.199219 224.699219 183.675781 225.148438 180.675781 C 225.375 179.550781 225.523438 178.949219 226.050781 178.425781 C 226.574219 177.824219 227.398438 177.449219 228.375 177.148438 C 229.5 176.851562 231.226562 176.625 232.5 176.699219 C 233.699219 176.773438 234.824219 176.851562 235.875 177.601562 C 237.523438 178.648438 239.773438 181.726562 240.675781 183.675781 C 241.425781 185.101562 241.425781 186 241.726562 187.800781 C 242.324219 191.175781 243.449219 198.898438 243.074219 202.351562 C 242.773438 204.449219 242.324219 205.5 241.351562 207.148438 C 240.074219 209.550781 237.226562 212.699219 235.125 214.800781 C 233.324219 216.601562 231.449219 218.324219 229.875 219.226562 C 228.75 219.898438 227.773438 220.273438 226.726562 220.351562 C 225.601562 220.5 224.101562 220.351562 223.273438 219.824219 C 222.523438 219.300781 222.074219 218.550781 221.699219 217.574219 C 221.175781 216.074219 220.648438 212.699219 221.25 211.648438 C 221.625 210.976562 222.449219 210.601562 223.050781 210.675781 C 223.726562 210.75 224.101562 212.175781 225.148438 212.550781 C 226.875 213.148438 231.074219 212.25 233.023438 211.949219 C 234.300781 211.800781 235.125 211.800781 236.023438 211.351562 C 237.148438 210.898438 238.050781 210.300781 239.101562 209.25 C 241.050781 207.300781 243.523438 203.398438 245.398438 200.101562 C 247.425781 196.574219 249.523438 192.300781 250.875 188.773438 C 251.925781 185.851562 252.601562 183.675781 253.125 180.601562 C 253.800781 176.699219 254.550781 170.550781 254.175781 167.25 C 253.875 165.226562 253.199219 163.949219 252.375 162.523438 C 251.699219 161.101562 249.898438 159.75 249.75 158.699219 C 249.601562 158.023438 249.75 157.425781 250.050781 156.976562 C 250.351562 156.601562 251.101562 156.300781 251.625 156.375 C 252.148438 156.375 252.75 156.675781 253.050781 157.273438 C 253.648438 158.398438 252.449219 161.851562 252.675781 164.023438 C 252.898438 166.125 253.574219 168.148438 254.324219 170.101562 C 255.074219 171.976562 255.976562 173.625 257.175781 175.5 C 258.601562 177.675781 261.148438 182.550781 262.574219 182.175781 C 264.675781 181.726562 265.875 170.925781 266.773438 165.074219 C 267.75 159.074219 267.976562 152.175781 268.050781 146.550781 C 268.125 141.75 266.476562 135 267.449219 133.351562 C 267.824219 132.75 268.425781 132.523438 268.949219 132.523438 C 269.476562 132.601562 270.148438 132.824219 270.449219 133.351562 C 271.050781 134.476562 269.773438 138.375 270.074219 140.398438 C 270.226562 141.976562 270.675781 143.023438 271.351562 144.375 C 272.175781 146.175781 273.75 148.949219 275.023438 150.074219 C 275.851562 150.75 276.601562 150.976562 277.648438 151.199219 C 279 151.648438 281.25 152.398438 282.601562 151.800781 C 283.949219 151.273438 284.699219 149.476562 285.675781 147.824219 C 287.101562 145.574219 288.824219 142.425781 289.800781 139.351562 C 290.851562 136.050781 291.226562 132.300781 291.523438 128.550781 C 291.75 124.648438 292.050781 120.601562 291.148438 116.398438 C 290.175781 111.523438 287.398438 105.75 285.226562 101.175781 C 283.351562 97.273438 281.699219 94.050781 279.074219 90.675781 C 276 86.773438 268.273438 81.898438 267.449219 79.425781 C 267.074219 78.449219 267.375 77.398438 267.824219 77.023438 C 268.273438 76.648438 269.699219 76.648438 270.148438 77.175781 C 270.976562 78 269.625 81.523438 269.773438 84 C 269.925781 86.773438 270.375 90.074219 271.273438 93.148438 C 272.324219 96.523438 273.75 100.125 275.851562 103.5 C 278.324219 107.476562 282.375 111.898438 285.449219 115.125 C 287.851562 117.675781 289.5 119.699219 292.351562 121.5 C 295.875 123.75 302.851562 127.875 305.175781 126.75 C 306.898438 125.925781 306.824219 122.699219 307.273438 119.550781 C 308.101562 114.074219 308.101562 102 307.273438 96.375 C 306.75 93 305.925781 90.976562 305.023438 88.5 C 304.125 86.023438 303 83.324219 301.875 81.449219 C 301.050781 80.023438 299.851562 77.851562 299.175781 77.925781 C 298.726562 78.074219 298.351562 79.648438 298.273438 80.773438 C 298.125 82.5 298.648438 84.976562 299.398438 87.226562 C 300.226562 89.925781 301.800781 93 303.449219 95.773438 C 305.023438 98.625 306.675781 101.625 309.074219 104.175781 C 311.699219 106.800781 315 109.273438 318.601562 111.148438 C 322.648438 113.175781 329.476562 116.324219 332.476562 115.5 C 334.425781 115.050781 335.398438 113.175781 336.300781 111.300781 C 337.5 108.824219 337.875 104.851562 337.875 101.25 C 337.875 97.050781 336.976562 92.25 335.773438 87.898438 C 334.574219 83.476562 332.550781 78.824219 330.523438 74.925781 C 328.726562 71.398438 326.25 68.25 324.300781 65.476562 C 322.726562 63.226562 321.449219 61.199219 319.875 59.550781 C 318.449219 58.125 316.648438 56.398438 315.375 55.875 C 314.550781 55.5 313.574219 56.023438 313.050781 55.648438 C 312.675781 55.273438 312.375 54.226562 312.523438 53.699219 C 312.675781 53.25 313.273438 52.726562 313.726562 52.574219 C 314.175781 52.425781 314.773438 52.5 315.300781 52.949219 C 316.574219 53.773438 317.550781 57.675781 319.726562 59.925781 C 322.726562 63.074219 330.976562 66.976562 332.773438 69.148438 C 333.523438 69.976562 333.523438 71.25 333.75 71.25 C 334.351562 71.175781 334.949219 66.074219 335.023438 63.148438 C 335.101562 59.773438 333.523438 54 334.050781 52.125 C 334.199219 51.300781 334.574219 50.851562 335.101562 50.625 C 335.550781 50.398438 336.074219 50.25 336.898438 50.625 C 339.75 51.976562 352.125 66.300781 352.574219 69.449219 C 352.726562 70.351562 352.273438 71.023438 351.824219 71.398438 C 351.375 71.699219 350.925781 71.773438 350.101562 71.550781 C 347.023438 70.648438 335.25 61.425781 329.699219 56.773438 C 325.574219 53.324219 321.523438 50.398438 319.5 46.949219 C 318 44.25 316.574219 40.351562 317.324219 38.699219 C 317.925781 37.5 320.101562 37.125 321.300781 36.824219 C 322.273438 36.601562 322.949219 36.523438 323.925781 36.75 C 325.050781 36.976562 326.398438 37.425781 327.675781 38.398438 C 329.476562 39.898438 330.601562 43.949219 333 45.824219 C 335.476562 47.699219 340.648438 50.476562 342.300781 49.425781 C 343.949219 48.375 342.375 42.148438 342.898438 39.300781 C 343.351562 37.125 343.800781 34.949219 344.773438 33.675781 C 345.449219 32.699219 346.425781 32.25 347.625 31.800781 C 349.050781 31.273438 351.449219 31.800781 352.949219 30.898438 C 354.523438 29.925781 355.050781 26.851562 356.699219 25.800781 C 358.273438 24.675781 360.449219 23.851562 362.625 24.300781 C 365.925781 25.050781 372.898438 30.824219 373.800781 33.074219 C 374.175781 33.976562 373.949219 35.023438 373.5 35.550781 C 373.125 36 372.226562 36.226562 371.625 36.148438 C 371.25 36.148438 370.800781 35.851562 370.5 35.550781 C 370.125 35.101562 369.824219 34.199219 369.976562 33.675781 C 370.199219 33 371.25 32.101562 371.925781 32.023438 C 372.523438 31.949219 373.351562 32.398438 373.648438 32.851562 C 374.023438 33.449219 374.101562 34.875 373.648438 35.398438 C 373.273438 35.925781 372.226562 36.226562 371.25 36.074219 C 368.925781 35.625 363.375 29.175781 361.125 28.726562 C 360.148438 28.5 359.324219 28.726562 358.875 29.25 C 358.351562 29.773438 358.648438 31.050781 358.273438 31.875 C 357.824219 32.699219 357.300781 33.675781 356.324219 34.199219 C 354.75 35.101562 350.925781 34.726562 349.351562 35.398438 C 348.449219 35.773438 347.925781 36 347.476562 36.824219 C 346.425781 38.699219 346.875 45.226562 346.273438 47.925781 C 345.824219 49.574219 345.601562 51 344.773438 51.824219 C 343.949219 52.648438 342.675781 53.023438 341.398438 53.101562 C 339.675781 53.101562 337.273438 52.050781 335.324219 51.148438 C 333.375 50.324219 331.425781 49.425781 329.851562 48 C 328.199219 46.351562 326.925781 43.050781 325.726562 41.851562 C 325.050781 41.175781 324.523438 40.726562 323.773438 40.648438 C 322.949219 40.5 321.449219 40.875 321.148438 41.476562 C 320.773438 42.148438 321.375 43.5 322.125 44.699219 C 323.699219 47.175781 327.824219 50.699219 331.800781 53.925781 C 337.199219 58.5 350.476562 66 352.199219 68.699219 C 352.648438 69.375 352.648438 69.824219 352.574219 70.351562 C 352.5 70.726562 352.199219 71.175781 351.824219 71.398438 C 351.300781 71.625 350.398438 71.550781 349.425781 71.023438 C 346.273438 69.226562 334.5 55.5 334.050781 52.574219 C 333.898438 51.75 334.273438 51.226562 334.648438 50.925781 C 335.175781 50.550781 336.300781 50.398438 336.898438 50.625 C 337.351562 50.851562 337.648438 51.449219 337.875 52.125 C 338.324219 53.476562 338.398438 55.949219 338.476562 58.351562 C 338.550781 61.425781 338.699219 66.75 338.175781 69.300781 C 337.949219 70.726562 337.800781 71.925781 336.976562 72.523438 C 336.148438 73.273438 334.425781 73.425781 333.074219 73.125 C 331.273438 72.824219 329.476562 71.324219 327.375 69.898438 C 324.375 67.949219 319.273438 64.351562 316.949219 62.023438 C 315.523438 60.523438 314.699219 59.324219 313.949219 57.898438 C 313.273438 56.550781 312.226562 54.601562 312.523438 53.699219 C 312.75 53.101562 313.5 52.648438 314.101562 52.5 C 315 52.351562 316.125 52.648438 317.25 53.175781 C 318.824219 53.925781 320.625 55.425781 322.5 57.523438 C 325.800781 61.050781 330.824219 68.324219 333.675781 73.648438 C 336.148438 78.226562 337.875 82.648438 339.148438 87.375 C 340.351562 92.023438 341.398438 97.199219 341.25 101.773438 C 341.101562 105.898438 340.5 110.550781 338.851562 113.398438 C 337.5 115.726562 335.324219 117.824219 333.226562 118.425781 C 331.199219 119.023438 328.875 117.898438 326.476562 117.300781 C 323.476562 116.550781 319.800781 115.648438 316.574219 113.925781 C 313.050781 112.050781 309.074219 109.125 306.226562 106.199219 C 303.675781 103.5 301.949219 100.351562 300.226562 97.273438 C 298.5 94.273438 296.773438 90.898438 295.800781 87.898438 C 295.050781 85.199219 294.523438 82.351562 294.601562 80.101562 C 294.75 78.449219 295.199219 76.726562 295.875 75.675781 C 296.398438 74.851562 297.148438 74.023438 297.976562 73.949219 C 299.101562 73.875 300.824219 74.925781 301.949219 75.898438 C 303.148438 76.949219 304.050781 78.375 305.023438 80.023438 C 306.226562 82.125 307.351562 84.898438 308.324219 87.523438 C 309.300781 90.300781 310.273438 92.398438 310.726562 96.226562 C 311.625 103.351562 311.476562 122.398438 310.273438 127.125 C 309.824219 128.625 309.523438 129.449219 308.699219 129.976562 C 307.648438 130.574219 306 130.351562 304.050781 129.976562 C 300.601562 129.300781 293.851562 126.449219 290.101562 124.050781 C 287.101562 122.101562 285.375 120 282.824219 117.300781 C 279.601562 113.851562 275.324219 109.125 272.773438 104.925781 C 270.601562 101.25 269.023438 97.425781 267.976562 93.675781 C 267 90.300781 266.324219 86.476562 266.398438 83.476562 C 266.476562 81.074219 266.925781 77.925781 267.824219 77.023438 C 268.199219 76.648438 268.800781 76.574219 269.398438 76.726562 C 270.226562 76.875 270.898438 77.699219 272.023438 78.675781 C 274.351562 80.699219 279.226562 85.273438 282 88.949219 C 284.625 92.398438 286.5 95.851562 288.449219 99.976562 C 290.773438 104.773438 293.625 111 294.675781 116.25 C 295.5 120.675781 295.273438 124.949219 294.976562 129.148438 C 294.675781 133.125 294.148438 137.25 293.023438 140.851562 C 291.976562 144.226562 290.25 147.75 288.449219 150.226562 C 286.949219 152.324219 285.226562 154.425781 283.5 155.175781 C 282.148438 155.851562 280.5 155.550781 279.148438 155.398438 C 277.949219 155.25 276.976562 154.949219 275.925781 154.425781 C 274.648438 153.898438 273.375 153.375 272.175781 152.25 C 270.675781 150.675781 268.949219 147.601562 268.050781 145.425781 C 267.226562 143.699219 266.625 142.199219 266.550781 140.324219 C 266.324219 138.148438 266.550781 134.398438 267.449219 133.351562 C 267.898438 132.75 268.800781 132.523438 269.398438 132.601562 C 269.851562 132.75 270.300781 133.050781 270.601562 133.726562 C 271.574219 135.675781 271.5 141.976562 271.574219 146.699219 C 271.574219 152.476562 271.199219 159.523438 270.300781 165.75 C 269.476562 171.898438 268.425781 180.824219 266.398438 183.824219 C 265.425781 185.175781 264.226562 185.773438 263.101562 185.925781 C 262.125 186 261.148438 185.550781 260.101562 184.800781 C 258.226562 183.449219 255.675781 179.625 254.023438 177.148438 C 252.75 175.050781 251.773438 173.175781 250.949219 171 C 250.050781 168.824219 249.148438 166.351562 249.074219 163.949219 C 248.925781 161.550781 249.449219 157.648438 250.351562 156.675781 C 250.800781 156.300781 251.550781 156.226562 252.074219 156.449219 C 252.75 156.675781 253.351562 157.425781 254.023438 158.398438 C 255.226562 160.199219 257.023438 163.875 257.550781 167.25 C 258.148438 171.375 257.175781 177.375 256.5 181.5 C 255.898438 184.800781 255.300781 186.898438 254.023438 190.273438 C 252.074219 195.226562 247.648438 204.148438 245.101562 207.976562 C 243.75 210.074219 242.699219 211.199219 241.351562 212.398438 C 240 213.601562 238.425781 214.726562 237 215.324219 C 235.648438 215.851562 234.601562 216 232.949219 216.074219 C 230.476562 216.226562 225.523438 216.074219 223.425781 215.175781 C 222.226562 214.726562 221.101562 213.824219 220.949219 213.074219 C 220.800781 212.476562 221.101562 211.574219 221.625 211.199219 C 222.226562 210.824219 223.648438 210.75 224.398438 211.199219 C 225.523438 211.949219 225.675781 216.074219 226.648438 216.449219 C 227.398438 216.75 228.300781 215.851562 229.351562 215.101562 C 231.074219 213.898438 233.925781 211.273438 235.5 209.101562 C 237.074219 207 238.425781 204.898438 239.023438 202.351562 C 239.699219 199.351562 238.949219 195 238.574219 192 C 238.273438 189.675781 237.898438 187.351562 237.300781 185.699219 C 236.773438 184.5 236.324219 183.675781 235.574219 182.851562 C 234.75 182.023438 233.773438 181.050781 232.648438 180.675781 C 231.449219 180.300781 229.574219 179.699219 228.675781 180.601562 C 227.023438 182.398438 229.050781 192.601562 229.574219 197.175781 C 229.949219 200.476562 230.925781 202.800781 231 205.574219 C 231.148438 208.425781 231.148438 212.773438 230.25 214.199219 C 229.800781 214.875 229.050781 215.175781 228.523438 215.175781 C 228 215.101562 227.625 214.875 227.175781 214.273438 C 225.523438 212.023438 223.648438 203.101562 221.476562 195.226562 C 218.023438 182.699219 209.023438 151.351562 208.800781 146.25 C 208.726562 145.351562 208.726562 145.050781 209.023438 144.601562 C 209.324219 144.226562 210 143.925781 210.523438 143.925781 C 210.898438 143.851562 211.273438 144 211.648438 144.375 C 212.398438 145.050781 213.148438 146.925781 213.824219 148.574219 C 214.648438 150.824219 215.398438 153.976562 215.773438 156.824219 C 216.074219 159.75 216 162.074219 215.851562 165.976562 C 215.625 172.574219 214.875 183.601562 213.75 192.824219 C 212.476562 202.875 211.574219 220.800781 208.5 224.101562 C 207.375 225.226562 205.875 225.449219 204.75 224.925781 C 202.726562 223.949219 200.324219 216.976562 199.425781 214.425781 C 198.976562 213 198.675781 211.949219 198.824219 211.050781 C 198.898438 210.449219 199.273438 209.925781 199.726562 209.625 C 200.023438 209.398438 200.550781 209.324219 201 209.398438 C 201.449219 209.550781 201.898438 209.851562 202.273438 210.449219 C 202.949219 211.574219 203.25 213.976562 203.324219 216.523438 C 203.550781 220.648438 203.101562 229.5 201.976562 233.324219 C 201.375 235.425781 200.625 236.925781 199.5 238.050781 C 198.523438 239.023438 197.023438 239.773438 195.675781 239.925781 C 194.476562 240 193.050781 239.550781 191.925781 238.949219 C 190.875 238.5 189.976562 237.75 189.226562 236.773438 C 188.324219 235.648438 187.648438 234.074219 187.199219 232.5 C 186.675781 230.625 186.601562 228.898438 186.449219 226.199219 C 186.148438 221.550781 186.300781 213.074219 186.601562 206.773438 C 186.824219 200.851562 186.523438 192.074219 187.949219 189.449219 C 188.476562 188.398438 189.148438 187.875 189.976562 187.800781 C 190.949219 187.648438 192.675781 188.625 193.574219 189.449219 C 194.550781 190.273438 195 191.398438 195.675781 192.675781 C 196.425781 194.175781 197.175781 196.050781 197.625 198.074219 C 198.226562 200.550781 198.523438 203.175781 198.523438 206.550781 C 198.675781 211.800781 197.851562 220.050781 197.023438 226.425781 C 196.199219 232.351562 194.925781 241.425781 193.875 243.523438 C 193.574219 244.125 193.351562 244.351562 192.976562 244.5 C 192.523438 244.726562 191.851562 244.800781 191.25 244.5 C 190.125 243.898438 189 240.898438 187.726562 239.699219 C 186.601562 238.648438 185.699219 238.273438 184.125 237.449219 C 181.5 236.101562 176.625 233.625 173.398438 232.726562 C 170.925781 231.976562 167.175781 232.351562 166.574219 231.675781 C 166.351562 231.449219 166.425781 231.148438 166.5 230.851562 C 166.726562 230.324219 167.773438 229.351562 168.375 229.425781 C 168.898438 229.425781 169.5 229.949219 169.949219 230.625 C 170.699219 231.898438 170.476562 234.074219 171.300781 236.851562 C 172.949219 242.773438 181.351562 260.476562 180.898438 264.300781 C 180.75 265.351562 180.226562 266.101562 179.625 266.25 C 178.949219 266.398438 177.976562 265.726562 176.925781 264.523438 C 172.5 259.5 161.101562 229.949219 155.625 216.675781 C 151.800781 207.449219 147.75 198.300781 146.476562 192.824219 C 145.875 190.125 145.351562 187.5 145.949219 186.523438 C 146.324219 186.074219 147.074219 185.925781 147.523438 186 C 148.050781 186.074219 148.425781 186.300781 148.875 186.976562 C 150.300781 189.148438 151.050781 197.324219 153.226562 204.375 C 156.675781 215.851562 166.574219 238.351562 168.976562 248.550781 C 170.175781 253.800781 170.175781 256.875 170.324219 260.773438 C 170.476562 264.226562 170.398438 268.050781 170.101562 270.824219 C 169.875 272.699219 169.726562 274.875 168.976562 275.625 C 168.601562 276.074219 167.851562 276.226562 167.398438 276.148438 C 166.949219 276.074219 166.574219 275.773438 166.125 275.101562 C 164.398438 272.925781 160.5 262.949219 158.773438 258.300781 C 157.648438 255.148438 156.375 251.925781 156.375 250.199219 C 156.375 249.449219 156.523438 248.925781 156.898438 248.550781 C 157.273438 248.175781 158.023438 247.949219 158.550781 248.023438 C 159.074219 248.101562 159.449219 248.398438 159.898438 249.074219 C 161.25 251.175781 162.75 259.125 163.125 264.523438 C 163.574219 270.300781 162.75 278.175781 161.851562 282.898438 C 161.25 285.976562 160.648438 288.523438 159.375 290.398438 C 158.324219 291.898438 156.75 293.324219 155.324219 293.550781 C 154.050781 293.773438 152.324219 293.023438 151.351562 292.199219 C 150.375 291.523438 149.925781 290.699219 149.324219 289.273438 C 148.050781 286.351562 147 280.273438 146.023438 274.949219 C 144.824219 268.425781 143.023438 258.523438 142.875 252.976562 C 142.800781 249.601562 142.800781 246.148438 143.625 244.875 C 143.925781 244.351562 144.523438 244.125 144.976562 244.050781 C 145.351562 244.050781 145.726562 244.125 146.175781 244.425781 C 146.925781 245.101562 147.75 246.976562 148.648438 248.699219 C 149.851562 251.023438 151.425781 254.25 152.476562 257.398438 C 153.675781 260.925781 154.800781 264.898438 155.324219 268.949219 C 155.851562 273.226562 155.773438 277.726562 155.699219 282.226562 C 155.550781 287.023438 155.476562 293.101562 154.648438 297.074219 C 154.125 299.851562 153.375 302.175781 152.476562 303.976562 C 151.726562 305.476562 150.074219 306.449219 149.851562 307.5 C 149.625 308.101562 150.300781 308.773438 150.074219 309.226562 C 149.773438 309.824219 148.949219 310.5 148.273438 310.5 C 147.300781 310.425781 146.175781 309.300781 144.976562 307.5 C 141.601562 302.476562 137.101562 276.601562 132.523438 273.601562 C 130.648438 272.398438 128.476562 273.601562 126.75 273.976562 C 125.398438 274.273438 123.824219 274.273438 123.226562 275.398438 C 122.023438 277.648438 124.875 283.875 126.300781 289.5 C 128.550781 298.425781 136.351562 319.199219 135.75 323.550781 C 135.601562 324.675781 135.148438 325.351562 134.625 325.5 C 134.023438 325.726562 133.273438 325.425781 132.523438 324.601562 C 129 321.074219 121.726562 300 115.875 285.75 C 108.824219 268.574219 98.25 241.800781 93.523438 228.375 C 90.976562 221.25 89.773438 214.949219 88.273438 211.875 C 87.675781 210.601562 86.550781 209.925781 86.550781 209.324219 C 86.550781 209.023438 86.773438 208.726562 87 208.574219 C 87.449219 208.273438 88.574219 207.976562 89.101562 208.273438 C 89.625 208.574219 90 209.476562 90 210.523438 C 90 213.449219 85.351562 220.425781 83.175781 226.574219 C 80.324219 234.449219 76.726562 246.75 75.226562 254.398438 C 74.25 259.5 74.175781 262.648438 73.875 267.449219 C 73.5 273.300781 73.050781 280.199219 73.199219 287.023438 C 73.425781 294.523438 73.875 303.523438 75.148438 310.5 C 76.199219 316.125 77.398438 321.601562 79.5 325.726562 C 81.226562 329.023438 83.101562 331.125 85.800781 333.675781 C 89.023438 336.824219 93.976562 340.875 98.023438 342.523438 C 101.324219 343.800781 104.773438 343.875 107.773438 343.875 C 110.324219 343.875 112.949219 343.574219 114.824219 342.976562 C 116.25 342.523438 117.675781 342.074219 118.425781 341.101562 C 119.101562 340.199219 119.023438 339 119.101562 337.351562 C 119.25 334.273438 118.574219 327.898438 117.976562 323.925781 C 117.523438 320.699219 117.148438 318.074219 116.175781 315.226562 C 115.199219 312.226562 113.625 309.449219 111.824219 306.375 C 109.726562 302.773438 106.949219 298.351562 104.101562 294.976562 C 101.398438 291.898438 98.476562 289.273438 95.25 286.875 C 91.875 284.398438 88.5 282.675781 84.300781 280.351562 C 78.976562 277.5 72.75 273.601562 65.699219 271.199219 C 57.300781 268.425781 43.5 267.75 36.898438 265.726562 C 33.375 264.675781 30.898438 263.925781 28.949219 262.273438 C 27.226562 260.851562 25.726562 259.125 25.351562 256.875 C 24.898438 253.875 27.226562 249 28.726562 245.25 C 30.226562 241.425781 32.175781 237.898438 34.351562 234.148438 C 36.675781 230.175781 39.375 225.824219 42.300781 222.226562 C 45.226562 218.699219 48.824219 213.449219 51.976562 212.625 C 54.226562 212.023438 57.300781 212.476562 58.648438 214.5 C 61.574219 218.925781 55.726562 236.175781 54.898438 247.648438 C 54.074219 259.800781 54.523438 275.851562 53.851562 285.375 C 53.398438 291.226562 52.875 294.074219 52.199219 299.476562 C 51.226562 306.976562 49.949219 318.75 48.375 325.875 C 47.25 330.976562 46.199219 334.199219 44.625 338.699219 C 42.824219 343.875 40.125 353.550781 37.949219 355.273438 C 37.125 355.949219 36.074219 356.023438 35.550781 355.648438 C 35.023438 355.351562 34.875 353.324219 34.875 353.324219 " clip-rule="nonzero"/></clipPath><clipPath id="23ac71530a"><path d="M 0 0 L 349 0 L 349 332 L 0 332 Z M 0 0 " clip-rule="nonzero"/></clipPath><clipPath id="58b1174a0d"><path d="M 9.875 329.324219 C 17.824219 309.074219 18.949219 305.925781 20 300.898438 C 21.574219 293.851562 22.851562 282.300781 23.75 275.023438 C 24.5 269.625 24.949219 266.773438 25.398438 261 C 26.074219 251.550781 25.550781 235.574219 26.523438 223.574219 C 27.351562 212.476562 32.75 193.800781 30.574219 191.625 C 29.976562 191.023438 28.851562 191.398438 27.800781 191.925781 C 25.699219 193.050781 22.476562 197.476562 19.925781 200.699219 C 17.300781 204.148438 14.523438 208.351562 12.351562 212.101562 C 10.25 215.699219 8.375 219.300781 6.875 222.824219 C 5.449219 226.125 3.050781 230.324219 3.5 232.648438 C 3.800781 234.226562 5.148438 235.125 6.5 236.101562 C 8.226562 237.226562 10.175781 237.75 13.175781 238.574219 C 19.324219 240.300781 33.050781 241.125 41.449219 243.898438 C 48.648438 246.300781 55.324219 250.351562 60.800781 253.351562 C 65.074219 255.675781 68.523438 257.398438 71.976562 259.949219 C 75.425781 262.5 78.574219 265.199219 81.425781 268.5 C 84.5 272.023438 87.351562 276.675781 89.601562 280.5 C 91.550781 283.726562 93.125 286.574219 94.25 289.800781 C 95.300781 292.875 95.75 295.726562 96.273438 299.175781 C 96.949219 303.375 97.699219 309.675781 97.476562 313.199219 C 97.324219 315.375 97.175781 317.023438 96.273438 318.449219 C 95.300781 319.949219 93.425781 321.074219 91.550781 321.824219 C 89.300781 322.800781 86.226562 323.175781 83.226562 323.175781 C 79.851562 323.25 76.023438 323.175781 72.425781 321.824219 C 67.925781 320.101562 62.375 315.75 58.773438 312.375 C 55.851562 309.675781 53.75 307.273438 51.875 303.75 C 49.550781 299.324219 48.050781 293.476562 46.925781 287.398438 C 45.5 280.199219 45.050781 270.976562 44.898438 263.324219 C 44.675781 256.351562 45.125 249.375 45.5 243.375 C 45.800781 238.5 45.875 235.273438 46.925781 230.023438 C 48.351562 222.226562 52.101562 209.773438 54.949219 201.523438 C 57.199219 195.074219 59.75 186.148438 62 184.574219 C 62.824219 184.050781 63.648438 184.050781 64.476562 184.5 C 65.824219 185.324219 67.101562 188.550781 68.226562 191.175781 C 69.726562 194.625 69.949219 197.851562 71.898438 203.324219 C 76.023438 215.476562 87.125 243.449219 94.101562 260.625 C 99.875 274.800781 109.699219 295.199219 110.675781 299.175781 C 110.824219 299.851562 110.898438 300 110.75 300.375 C 110.601562 300.824219 110.074219 301.425781 109.625 301.5 C 109.101562 301.648438 108.199219 301.425781 107.675781 300.976562 C 106.925781 300.148438 106.925781 298.5 106.25 296.25 C 104.601562 290.550781 100.101562 274.574219 98 266.398438 C 96.574219 260.773438 95 255 94.699219 252.074219 C 94.625 250.800781 94.550781 250.050781 94.925781 249.226562 C 95.300781 248.476562 96.125 247.875 97.023438 247.351562 C 98.074219 246.824219 99.425781 246.601562 100.851562 246.300781 C 102.726562 246 105.648438 245.476562 107.449219 245.699219 C 108.648438 245.851562 109.625 246 110.523438 246.824219 C 111.800781 248.101562 112.476562 250.648438 113.523438 253.5 C 115.398438 258.300781 117.800781 268.351562 119.75 273.675781 C 121.023438 277.125 122.226562 280.5 123.425781 282.226562 C 123.949219 283.050781 124.851562 283.273438 125.074219 283.875 C 125.226562 284.398438 125.148438 285.226562 124.851562 285.675781 C 124.550781 286.125 123.800781 286.5 123.273438 286.5 C 122.75 286.5 121.925781 286.273438 121.699219 285.675781 C 120.949219 283.875 125.375 276.601562 126.273438 271.949219 C 127.175781 267.375 127.101562 262.574219 127.175781 258 C 127.25 253.648438 127.398438 249.148438 126.800781 245.023438 C 126.273438 241.273438 125.449219 237.898438 124.175781 234.226562 C 122.75 230.324219 118.925781 224.625 118.476562 222.523438 C 118.324219 221.773438 118.324219 221.324219 118.625 220.875 C 118.925781 220.425781 119.898438 220.050781 120.425781 220.125 C 120.875 220.125 121.476562 220.574219 121.699219 221.101562 C 121.925781 221.773438 120.949219 222.675781 120.875 224.25 C 120.648438 228.75 123.125 243.300781 124.476562 250.574219 C 125.375 255.898438 126.273438 261.675781 127.550781 264.300781 C 128.148438 265.5 128.75 266.625 129.425781 266.625 C 130.175781 266.625 131.148438 265.125 131.75 263.925781 C 132.574219 262.425781 133.023438 260.101562 133.476562 257.851562 C 133.925781 255.226562 134.074219 251.925781 134.300781 249 C 134.523438 246.074219 134.976562 243.601562 134.675781 240.375 C 134.300781 236.175781 131.300781 228.601562 131.375 226.199219 C 131.449219 225.375 131.523438 224.925781 131.898438 224.550781 C 132.273438 224.175781 133.023438 223.949219 133.550781 224.023438 C 134.074219 224.101562 134.523438 224.476562 134.898438 225.074219 C 135.875 226.425781 136.101562 230.023438 137.226562 233.175781 C 138.875 237.898438 144.875 247.875 144.5 250.5 C 144.425781 251.398438 143.824219 252 143.226562 252.074219 C 142.699219 252.226562 141.574219 251.925781 141.125 251.101562 C 139.925781 249.148438 142.023438 241.199219 141.875 236.699219 C 141.726562 232.574219 141.648438 230.023438 140.523438 224.925781 C 138.199219 214.949219 128.449219 192.75 125 181.5 C 122.824219 174.449219 120.574219 166.800781 120.574219 164.101562 C 120.574219 163.351562 120.648438 162.898438 121.023438 162.523438 C 121.324219 162.226562 122.074219 161.925781 122.523438 162 C 123.050781 162.074219 123.425781 162.300781 123.875 162.976562 C 125.148438 164.851562 126.125 172.050781 127.699219 176.699219 C 129.425781 181.574219 131.074219 185.101562 133.773438 191.398438 C 138.726562 202.949219 154.773438 235.351562 155.824219 239.851562 C 155.976562 240.523438 155.976562 240.75 155.824219 241.125 C 155.675781 241.5 155.148438 242.175781 154.625 242.25 C 154.101562 242.324219 153.351562 242.023438 152.601562 241.199219 C 149.976562 238.273438 144.800781 220.125 143.074219 213.898438 C 142.175781 210.824219 141.125 208.199219 141.5 206.851562 C 141.726562 206.101562 142.398438 205.5 142.925781 205.425781 C 143.523438 205.351562 144.199219 206.550781 144.949219 206.625 C 145.925781 206.699219 147.050781 205.351562 148.398438 205.351562 C 150.273438 205.273438 152.824219 206.476562 155.226562 207.523438 C 158.148438 208.875 162.199219 210.824219 164.523438 212.773438 C 166.398438 214.351562 168.199219 216.375 168.726562 217.800781 C 168.949219 218.625 168.949219 219.449219 168.648438 219.976562 C 168.351562 220.425781 167.601562 220.726562 167.074219 220.726562 C 166.550781 220.726562 165.875 220.574219 165.574219 219.898438 C 164.523438 217.800781 167.75 207.976562 168.5 201.898438 C 169.25 195.523438 170.148438 187.5 170.074219 182.398438 C 170.074219 179.175781 169.925781 177 169.175781 174.449219 C 168.5 171.976562 166.476562 167.25 165.648438 167.398438 C 163.925781 167.773438 164.601562 195.523438 164.898438 202.273438 C 165.050781 204.976562 165.125 206.398438 165.574219 208.050781 C 165.949219 209.25 166.398438 210.375 167.226562 211.050781 C 168.050781 211.800781 169.773438 212.773438 170.824219 212.398438 C 172.023438 211.949219 172.925781 209.925781 173.601562 207.824219 C 174.800781 204.300781 175.101562 196.125 174.875 192.375 C 174.726562 190.273438 173.75 188.699219 173.824219 187.5 C 173.824219 186.824219 173.976562 186.226562 174.351562 185.925781 C 174.726562 185.550781 175.476562 185.324219 176 185.398438 C 176.375 185.476562 176.675781 185.625 177.050781 186.074219 C 178.25 187.5 181.625 194.550781 181.476562 196.800781 C 181.324219 198 180.199219 199.425781 179.898438 199.351562 C 179.074219 199.050781 184.023438 178.273438 185.226562 168.300781 C 186.425781 159.148438 187.175781 148.273438 187.398438 141.75 C 187.550781 138 187.699219 135.75 187.324219 132.898438 C 186.949219 130.273438 185.601562 127.199219 185.449219 125.398438 C 185.375 124.425781 186.050781 123.601562 185.75 123.148438 C 185.449219 122.625 184.023438 122.699219 183.800781 122.25 C 183.574219 121.875 183.726562 121.050781 184.023438 120.601562 C 184.324219 120.226562 185.375 119.851562 185.898438 119.925781 C 186.425781 120.074219 186.648438 120.300781 187.101562 121.125 C 190.25 126.226562 205.550781 182.550781 205.324219 188.925781 C 205.324219 190.050781 205.175781 190.5 204.726562 190.800781 C 204.199219 191.101562 202.925781 191.175781 202.398438 190.574219 C 201.425781 189.523438 202.773438 184.425781 202.550781 181.5 C 202.324219 178.800781 201.574219 176.851562 201.199219 173.773438 C 200.675781 169.199219 199.699219 159.675781 200.148438 156.675781 C 200.375 155.550781 200.523438 154.949219 201.050781 154.425781 C 201.574219 153.824219 202.398438 153.449219 203.375 153.148438 C 204.5 152.851562 206.226562 152.625 207.5 152.699219 C 208.699219 152.773438 209.824219 152.851562 210.875 153.601562 C 212.523438 154.648438 214.773438 157.726562 215.675781 159.675781 C 216.425781 161.101562 216.425781 162 216.726562 163.800781 C 217.324219 167.175781 218.449219 174.898438 218.074219 178.351562 C 217.773438 180.449219 217.324219 181.5 216.351562 183.148438 C 215.074219 185.550781 212.226562 188.699219 210.125 190.800781 C 208.324219 192.601562 206.449219 194.324219 204.875 195.226562 C 203.75 195.898438 202.773438 196.273438 201.726562 196.351562 C 200.601562 196.5 199.101562 196.351562 198.273438 195.824219 C 197.523438 195.300781 197.074219 194.550781 196.699219 193.574219 C 196.175781 192.074219 195.648438 188.699219 196.25 187.648438 C 196.625 186.976562 197.449219 186.601562 198.050781 186.675781 C 198.726562 186.75 199.101562 188.175781 200.148438 188.550781 C 201.875 189.148438 206.074219 188.25 208.023438 187.949219 C 209.300781 187.800781 210.125 187.800781 211.023438 187.351562 C 212.148438 186.898438 213.050781 186.300781 214.101562 185.25 C 216.050781 183.300781 218.523438 179.398438 220.398438 176.101562 C 222.425781 172.574219 224.523438 168.300781 225.875 164.773438 C 226.925781 161.851562 227.601562 159.675781 228.125 156.601562 C 228.800781 152.699219 229.550781 146.550781 229.175781 143.25 C 228.875 141.226562 228.199219 139.949219 227.375 138.523438 C 226.699219 137.101562 224.898438 135.75 224.75 134.699219 C 224.601562 134.023438 224.75 133.425781 225.050781 132.976562 C 225.351562 132.601562 226.101562 132.300781 226.625 132.375 C 227.148438 132.375 227.75 132.675781 228.050781 133.273438 C 228.648438 134.398438 227.449219 137.851562 227.675781 140.023438 C 227.898438 142.125 228.574219 144.148438 229.324219 146.101562 C 230.074219 147.976562 230.976562 149.625 232.175781 151.5 C 233.601562 153.675781 236.148438 158.550781 237.574219 158.175781 C 239.675781 157.726562 240.875 146.925781 241.773438 141.074219 C 242.75 135.074219 242.976562 128.175781 243.050781 122.550781 C 243.125 117.75 241.476562 111 242.449219 109.351562 C 242.824219 108.75 243.425781 108.523438 243.949219 108.523438 C 244.476562 108.601562 245.148438 108.824219 245.449219 109.351562 C 246.050781 110.476562 244.773438 114.375 245.074219 116.398438 C 245.226562 117.976562 245.675781 119.023438 246.351562 120.375 C 247.175781 122.175781 248.75 124.949219 250.023438 126.074219 C 250.851562 126.75 251.601562 126.976562 252.648438 127.199219 C 254 127.648438 256.25 128.398438 257.601562 127.800781 C 258.949219 127.273438 259.699219 125.476562 260.675781 123.824219 C 262.101562 121.574219 263.824219 118.425781 264.800781 115.351562 C 265.851562 112.050781 266.226562 108.300781 266.523438 104.550781 C 266.75 100.648438 267.050781 96.601562 266.148438 92.398438 C 265.175781 87.523438 262.398438 81.75 260.226562 77.175781 C 258.351562 73.273438 256.699219 70.050781 254.074219 66.675781 C 251 62.773438 243.273438 57.898438 242.449219 55.425781 C 242.074219 54.449219 242.375 53.398438 242.824219 53.023438 C 243.273438 52.648438 244.699219 52.648438 245.148438 53.175781 C 245.976562 54 244.625 57.523438 244.773438 60 C 244.925781 62.773438 245.375 66.074219 246.273438 69.148438 C 247.324219 72.523438 248.75 76.125 250.851562 79.5 C 253.324219 83.476562 257.375 87.898438 260.449219 91.125 C 262.851562 93.675781 264.5 95.699219 267.351562 97.5 C 270.875 99.75 277.851562 103.875 280.175781 102.75 C 281.898438 101.925781 281.824219 98.699219 282.273438 95.550781 C 283.101562 90.074219 283.101562 78 282.273438 72.375 C 281.75 69 280.925781 66.976562 280.023438 64.5 C 279.125 62.023438 278 59.324219 276.875 57.449219 C 276.050781 56.023438 274.851562 53.851562 274.175781 53.925781 C 273.726562 54.074219 273.351562 55.648438 273.273438 56.773438 C 273.125 58.5 273.648438 60.976562 274.398438 63.226562 C 275.226562 65.925781 276.800781 69 278.449219 71.773438 C 280.023438 74.625 281.675781 77.625 284.074219 80.175781 C 286.699219 82.800781 290 85.273438 293.601562 87.148438 C 297.648438 89.175781 304.476562 92.324219 307.476562 91.5 C 309.425781 91.050781 310.398438 89.175781 311.300781 87.300781 C 312.5 84.824219 312.875 80.851562 312.875 77.25 C 312.875 73.050781 311.976562 68.25 310.773438 63.898438 C 309.574219 59.476562 307.550781 54.824219 305.523438 50.925781 C 303.726562 47.398438 301.25 44.25 299.300781 41.476562 C 297.726562 39.226562 296.449219 37.199219 294.875 35.550781 C 293.449219 34.125 291.648438 32.398438 290.375 31.875 C 289.550781 31.5 288.574219 32.023438 288.050781 31.648438 C 287.675781 31.273438 287.375 30.226562 287.523438 29.699219 C 287.675781 29.25 288.273438 28.726562 288.726562 28.574219 C 289.175781 28.425781 289.773438 28.5 290.300781 28.949219 C 291.574219 29.773438 292.550781 33.675781 294.726562 35.925781 C 297.726562 39.074219 305.976562 42.976562 307.773438 45.148438 C 308.523438 45.976562 308.523438 47.25 308.75 47.25 C 309.351562 47.175781 309.949219 42.074219 310.023438 39.148438 C 310.101562 35.773438 308.523438 30 309.050781 28.125 C 309.199219 27.300781 309.574219 26.851562 310.101562 26.625 C 310.550781 26.398438 311.074219 26.25 311.898438 26.625 C 314.75 27.976562 327.125 42.300781 327.574219 45.449219 C 327.726562 46.351562 327.273438 47.023438 326.824219 47.398438 C 326.375 47.699219 325.925781 47.773438 325.101562 47.550781 C 322.023438 46.648438 310.25 37.425781 304.699219 32.773438 C 300.574219 29.324219 296.523438 26.398438 294.5 22.949219 C 293 20.25 291.574219 16.351562 292.324219 14.699219 C 292.925781 13.5 295.101562 13.125 296.300781 12.824219 C 297.273438 12.601562 297.949219 12.523438 298.925781 12.75 C 300.050781 12.976562 301.398438 13.425781 302.675781 14.398438 C 304.476562 15.898438 305.601562 19.949219 308 21.824219 C 310.476562 23.699219 315.648438 26.476562 317.300781 25.425781 C 318.949219 24.375 317.375 18.148438 317.898438 15.300781 C 318.351562 13.125 318.800781 10.949219 319.773438 9.675781 C 320.449219 8.699219 321.425781 8.25 322.625 7.800781 C 324.050781 7.273438 326.449219 7.800781 327.949219 6.898438 C 329.523438 5.925781 330.050781 2.851562 331.699219 1.800781 C 333.273438 0.675781 335.449219 -0.148438 337.625 0.300781 C 340.925781 1.050781 347.898438 6.824219 348.800781 9.074219 C 349.175781 9.976562 348.949219 11.023438 348.5 11.550781 C 348.125 12 347.226562 12.226562 346.625 12.148438 C 346.25 12.148438 345.800781 11.851562 345.5 11.550781 C 345.125 11.101562 344.824219 10.199219 344.976562 9.675781 C 345.199219 9 346.25 8.101562 346.925781 8.023438 C 347.523438 7.949219 348.351562 8.398438 348.648438 8.851562 C 349.023438 9.449219 349.101562 10.875 348.648438 11.398438 C 348.273438 11.925781 347.226562 12.226562 346.25 12.074219 C 343.925781 11.625 338.375 5.175781 336.125 4.726562 C 335.148438 4.5 334.324219 4.726562 333.875 5.25 C 333.351562 5.773438 333.648438 7.050781 333.273438 7.875 C 332.824219 8.699219 332.300781 9.675781 331.324219 10.199219 C 329.75 11.101562 325.925781 10.726562 324.351562 11.398438 C 323.449219 11.773438 322.925781 12 322.476562 12.824219 C 321.425781 14.699219 321.875 21.226562 321.273438 23.925781 C 320.824219 25.574219 320.601562 27 319.773438 27.824219 C 318.949219 28.648438 317.675781 29.023438 316.398438 29.101562 C 314.675781 29.101562 312.273438 28.050781 310.324219 27.148438 C 308.375 26.324219 306.425781 25.425781 304.851562 24 C 303.199219 22.351562 301.925781 19.050781 300.726562 17.851562 C 300.050781 17.175781 299.523438 16.726562 298.773438 16.648438 C 297.949219 16.5 296.449219 16.875 296.148438 17.476562 C 295.773438 18.148438 296.375 19.5 297.125 20.699219 C 298.699219 23.175781 302.824219 26.699219 306.800781 29.925781 C 312.199219 34.5 325.476562 42 327.199219 44.699219 C 327.648438 45.375 327.648438 45.824219 327.574219 46.351562 C 327.5 46.726562 327.199219 47.175781 326.824219 47.398438 C 326.300781 47.625 325.398438 47.550781 324.425781 47.023438 C 321.273438 45.226562 309.5 31.5 309.050781 28.574219 C 308.898438 27.75 309.273438 27.226562 309.648438 26.925781 C 310.175781 26.550781 311.300781 26.398438 311.898438 26.625 C 312.351562 26.851562 312.648438 27.449219 312.875 28.125 C 313.324219 29.476562 313.398438 31.949219 313.476562 34.351562 C 313.550781 37.425781 313.699219 42.75 313.175781 45.300781 C 312.949219 46.726562 312.800781 47.925781 311.976562 48.523438 C 311.148438 49.273438 309.425781 49.425781 308.074219 49.125 C 306.273438 48.824219 304.476562 47.324219 302.375 45.898438 C 299.375 43.949219 294.273438 40.351562 291.949219 38.023438 C 290.523438 36.523438 289.699219 35.324219 288.949219 33.898438 C 288.273438 32.550781 287.226562 30.601562 287.523438 29.699219 C 287.75 29.101562 288.5 28.648438 289.101562 28.5 C 290 28.351562 291.125 28.648438 292.25 29.175781 C 293.824219 29.925781 295.625 31.425781 297.5 33.523438 C 300.800781 37.050781 305.824219 44.324219 308.675781 49.648438 C 311.148438 54.226562 312.875 58.648438 314.148438 63.375 C 315.351562 68.023438 316.398438 73.199219 316.25 77.773438 C 316.101562 81.898438 315.5 86.550781 313.851562 89.398438 C 312.5 91.726562 310.324219 93.824219 308.226562 94.425781 C 306.199219 95.023438 303.875 93.898438 301.476562 93.300781 C 298.476562 92.550781 294.800781 91.648438 291.574219 89.925781 C 288.050781 88.050781 284.074219 85.125 281.226562 82.199219 C 278.675781 79.5 276.949219 76.351562 275.226562 73.273438 C 273.5 70.273438 271.773438 66.898438 270.800781 63.898438 C 270.050781 61.199219 269.523438 58.351562 269.601562 56.101562 C 269.75 54.449219 270.199219 52.726562 270.875 51.675781 C 271.398438 50.851562 272.148438 50.023438 272.976562 49.949219 C 274.101562 49.875 275.824219 50.925781 276.949219 51.898438 C 278.148438 52.949219 279.050781 54.375 280.023438 56.023438 C 281.226562 58.125 282.351562 60.898438 283.324219 63.523438 C 284.300781 66.300781 285.273438 68.398438 285.726562 72.226562 C 286.625 79.351562 286.476562 98.398438 285.273438 103.125 C 284.824219 104.625 284.523438 105.449219 283.699219 105.976562 C 282.648438 106.574219 281 106.351562 279.050781 105.976562 C 275.601562 105.300781 268.851562 102.449219 265.101562 100.050781 C 262.101562 98.101562 260.375 96 257.824219 93.300781 C 254.601562 89.851562 250.324219 85.125 247.773438 80.925781 C 245.601562 77.25 244.023438 73.425781 242.976562 69.675781 C 242 66.300781 241.324219 62.476562 241.398438 59.476562 C 241.476562 57.074219 241.925781 53.925781 242.824219 53.023438 C 243.199219 52.648438 243.800781 52.574219 244.398438 52.726562 C 245.226562 52.875 245.898438 53.699219 247.023438 54.675781 C 249.351562 56.699219 254.226562 61.273438 257 64.949219 C 259.625 68.398438 261.5 71.851562 263.449219 75.976562 C 265.773438 80.773438 268.625 87 269.675781 92.25 C 270.5 96.675781 270.273438 100.949219 269.976562 105.148438 C 269.675781 109.125 269.148438 113.25 268.023438 116.851562 C 266.976562 120.226562 265.25 123.75 263.449219 126.226562 C 261.949219 128.324219 260.226562 130.425781 258.5 131.175781 C 257.148438 131.851562 255.5 131.550781 254.148438 131.398438 C 252.949219 131.25 251.976562 130.949219 250.925781 130.425781 C 249.648438 129.898438 248.375 129.375 247.175781 128.25 C 245.675781 126.675781 243.949219 123.601562 243.050781 121.425781 C 242.226562 119.699219 241.625 118.199219 241.550781 116.324219 C 241.324219 114.148438 241.550781 110.398438 242.449219 109.351562 C 242.898438 108.75 243.800781 108.523438 244.398438 108.601562 C 244.851562 108.75 245.300781 109.050781 245.601562 109.726562 C 246.574219 111.675781 246.5 117.976562 246.574219 122.699219 C 246.574219 128.476562 246.199219 135.523438 245.300781 141.75 C 244.476562 147.898438 243.425781 156.824219 241.398438 159.824219 C 240.425781 161.175781 239.226562 161.773438 238.101562 161.925781 C 237.125 162 236.148438 161.550781 235.101562 160.800781 C 233.226562 159.449219 230.675781 155.625 229.023438 153.148438 C 227.75 151.050781 226.773438 149.175781 225.949219 147 C 225.050781 144.824219 224.148438 142.351562 224.074219 139.949219 C 223.925781 137.550781 224.449219 133.648438 225.351562 132.675781 C 225.800781 132.300781 226.550781 132.226562 227.074219 132.449219 C 227.75 132.675781 228.351562 133.425781 229.023438 134.398438 C 230.226562 136.199219 232.023438 139.875 232.550781 143.25 C 233.148438 147.375 232.175781 153.375 231.5 157.5 C 230.898438 160.800781 230.300781 162.898438 229.023438 166.273438 C 227.074219 171.226562 222.648438 180.148438 220.101562 183.976562 C 218.75 186.074219 217.699219 187.199219 216.351562 188.398438 C 215 189.601562 213.425781 190.726562 212 191.324219 C 210.648438 191.851562 209.601562 192 207.949219 192.074219 C 205.476562 192.226562 200.523438 192.074219 198.425781 191.175781 C 197.226562 190.726562 196.101562 189.824219 195.949219 189.074219 C 195.800781 188.476562 196.101562 187.574219 196.625 187.199219 C 197.226562 186.824219 198.648438 186.75 199.398438 187.199219 C 200.523438 187.949219 200.675781 192.074219 201.648438 192.449219 C 202.398438 192.75 203.300781 191.851562 204.351562 191.101562 C 206.074219 189.898438 208.925781 187.273438 210.5 185.101562 C 212.074219 183 213.425781 180.898438 214.023438 178.351562 C 214.699219 175.351562 213.949219 171 213.574219 168 C 213.273438 165.675781 212.898438 163.351562 212.300781 161.699219 C 211.773438 160.5 211.324219 159.675781 210.574219 158.851562 C 209.75 158.023438 208.773438 157.050781 207.648438 156.675781 C 206.449219 156.300781 204.574219 155.699219 203.675781 156.601562 C 202.023438 158.398438 204.050781 168.601562 204.574219 173.175781 C 204.949219 176.476562 205.925781 178.800781 206 181.574219 C 206.148438 184.425781 206.148438 188.773438 205.25 190.199219 C 204.800781 190.875 204.050781 191.175781 203.523438 191.175781 C 203 191.101562 202.625 190.875 202.175781 190.273438 C 200.523438 188.023438 198.648438 179.101562 196.476562 171.226562 C 193.023438 158.699219 184.023438 127.351562 183.800781 122.25 C 183.726562 121.351562 183.726562 121.050781 184.023438 120.601562 C 184.324219 120.226562 185 119.925781 185.523438 119.925781 C 185.898438 119.851562 186.273438 120 186.648438 120.375 C 187.398438 121.050781 188.148438 122.925781 188.824219 124.574219 C 189.648438 126.824219 190.398438 129.976562 190.773438 132.824219 C 191.074219 135.75 191 138.074219 190.851562 141.976562 C 190.625 148.574219 189.875 159.601562 188.75 168.824219 C 187.476562 178.875 186.574219 196.800781 183.5 200.101562 C 182.375 201.226562 180.875 201.449219 179.75 200.925781 C 177.726562 199.949219 175.324219 192.976562 174.425781 190.425781 C 173.976562 189 173.675781 187.949219 173.824219 187.050781 C 173.898438 186.449219 174.273438 185.925781 174.726562 185.625 C 175.023438 185.398438 175.550781 185.324219 176 185.398438 C 176.449219 185.550781 176.898438 185.851562 177.273438 186.449219 C 177.949219 187.574219 178.25 189.976562 178.324219 192.523438 C 178.550781 196.648438 178.101562 205.5 176.976562 209.324219 C 176.375 211.425781 175.625 212.925781 174.5 214.050781 C 173.523438 215.023438 172.023438 215.773438 170.675781 215.925781 C 169.476562 216 168.050781 215.550781 166.925781 214.949219 C 165.875 214.5 164.976562 213.75 164.226562 212.773438 C 163.324219 211.648438 162.648438 210.074219 162.199219 208.5 C 161.675781 206.625 161.601562 204.898438 161.449219 202.199219 C 161.148438 197.550781 161.300781 189.074219 161.601562 182.773438 C 161.824219 176.851562 161.523438 168.074219 162.949219 165.449219 C 163.476562 164.398438 164.148438 163.875 164.976562 163.800781 C 165.949219 163.648438 167.675781 164.625 168.574219 165.449219 C 169.550781 166.273438 170 167.398438 170.675781 168.675781 C 171.425781 170.175781 172.175781 172.050781 172.625 174.074219 C 173.226562 176.550781 173.523438 179.175781 173.523438 182.550781 C 173.675781 187.800781 172.851562 196.050781 172.023438 202.425781 C 171.199219 208.351562 169.925781 217.425781 168.875 219.523438 C 168.574219 220.125 168.351562 220.351562 167.976562 220.5 C 167.523438 220.726562 166.851562 220.800781 166.25 220.5 C 165.125 219.898438 164 216.898438 162.726562 215.699219 C 161.601562 214.648438 160.699219 214.273438 159.125 213.449219 C 156.5 212.101562 151.625 209.625 148.398438 208.726562 C 145.925781 207.976562 142.175781 208.351562 141.574219 207.675781 C 141.351562 207.449219 141.425781 207.148438 141.5 206.851562 C 141.726562 206.324219 142.773438 205.351562 143.375 205.425781 C 143.898438 205.425781 144.5 205.949219 144.949219 206.625 C 145.699219 207.898438 145.476562 210.074219 146.300781 212.851562 C 147.949219 218.773438 156.351562 236.476562 155.898438 240.300781 C 155.75 241.351562 155.226562 242.101562 154.625 242.25 C 153.949219 242.398438 152.976562 241.726562 151.925781 240.523438 C 147.5 235.5 136.101562 205.949219 130.625 192.675781 C 126.800781 183.449219 122.75 174.300781 121.476562 168.824219 C 120.875 166.125 120.351562 163.5 120.949219 162.523438 C 121.324219 162.074219 122.074219 161.925781 122.523438 162 C 123.050781 162.074219 123.425781 162.300781 123.875 162.976562 C 125.300781 165.148438 126.050781 173.324219 128.226562 180.375 C 131.675781 191.851562 141.574219 214.351562 143.976562 224.550781 C 145.175781 229.800781 145.175781 232.875 145.324219 236.773438 C 145.476562 240.226562 145.398438 244.050781 145.101562 246.824219 C 144.875 248.699219 144.726562 250.875 143.976562 251.625 C 143.601562 252.074219 142.851562 252.226562 142.398438 252.148438 C 141.949219 252.074219 141.574219 251.773438 141.125 251.101562 C 139.398438 248.925781 135.5 238.949219 133.773438 234.300781 C 132.648438 231.148438 131.375 227.925781 131.375 226.199219 C 131.375 225.449219 131.523438 224.925781 131.898438 224.550781 C 132.273438 224.175781 133.023438 223.949219 133.550781 224.023438 C 134.074219 224.101562 134.449219 224.398438 134.898438 225.074219 C 136.25 227.175781 137.75 235.125 138.125 240.523438 C 138.574219 246.300781 137.75 254.175781 136.851562 258.898438 C 136.25 261.976562 135.648438 264.523438 134.375 266.398438 C 133.324219 267.898438 131.75 269.324219 130.324219 269.550781 C 129.050781 269.773438 127.324219 269.023438 126.351562 268.199219 C 125.375 267.523438 124.925781 266.699219 124.324219 265.273438 C 123.050781 262.351562 122 256.273438 121.023438 250.949219 C 119.824219 244.425781 118.023438 234.523438 117.875 228.976562 C 117.800781 225.601562 117.800781 222.148438 118.625 220.875 C 118.925781 220.351562 119.523438 220.125 119.976562 220.050781 C 120.351562 220.050781 120.726562 220.125 121.175781 220.425781 C 121.925781 221.101562 122.75 222.976562 123.648438 224.699219 C 124.851562 227.023438 126.425781 230.25 127.476562 233.398438 C 128.675781 236.925781 129.800781 240.898438 130.324219 244.949219 C 130.851562 249.226562 130.773438 253.726562 130.699219 258.226562 C 130.550781 263.023438 130.476562 269.101562 129.648438 273.074219 C 129.125 275.851562 128.375 278.175781 127.476562 279.976562 C 126.726562 281.476562 125.074219 282.449219 124.851562 283.5 C 124.625 284.101562 125.300781 284.773438 125.074219 285.226562 C 124.773438 285.824219 123.949219 286.5 123.273438 286.5 C 122.300781 286.425781 121.175781 285.300781 119.976562 283.5 C 116.601562 278.476562 112.101562 252.601562 107.523438 249.601562 C 105.648438 248.398438 103.476562 249.601562 101.75 249.976562 C 100.398438 250.273438 98.824219 250.273438 98.226562 251.398438 C 97.023438 253.648438 99.875 259.875 101.300781 265.5 C 103.550781 274.425781 111.351562 295.199219 110.75 299.550781 C 110.601562 300.675781 110.148438 301.351562 109.625 301.5 C 109.023438 301.726562 108.273438 301.425781 107.523438 300.601562 C 104 297.074219 96.726562 276 90.875 261.75 C 83.824219 244.574219 73.25 217.800781 68.523438 204.375 C 65.976562 197.25 64.773438 190.949219 63.273438 187.875 C 62.675781 186.601562 61.550781 185.925781 61.550781 185.324219 C 61.550781 185.023438 61.773438 184.726562 62 184.574219 C 62.449219 184.273438 63.574219 183.976562 64.101562 184.273438 C 64.625 184.574219 65 185.476562 65 186.523438 C 65 189.449219 60.351562 196.425781 58.175781 202.574219 C 55.324219 210.449219 51.726562 222.75 50.226562 230.398438 C 49.25 235.5 49.175781 238.648438 48.875 243.449219 C 48.5 249.300781 48.050781 256.199219 48.199219 263.023438 C 48.425781 270.523438 48.875 279.523438 50.148438 286.5 C 51.199219 292.125 52.398438 297.601562 54.5 301.726562 C 56.226562 305.023438 58.101562 307.125 60.800781 309.675781 C 64.023438 312.824219 68.976562 316.875 73.023438 318.523438 C 76.324219 319.800781 79.773438 319.875 82.773438 319.875 C 85.324219 319.875 87.949219 319.574219 89.824219 318.976562 C 91.25 318.523438 92.675781 318.074219 93.425781 317.101562 C 94.101562 316.199219 94.023438 315 94.101562 313.351562 C 94.25 310.273438 93.574219 303.898438 92.976562 299.925781 C 92.523438 296.699219 92.148438 294.074219 91.175781 291.226562 C 90.199219 288.226562 88.625 285.449219 86.824219 282.375 C 84.726562 278.773438 81.949219 274.351562 79.101562 270.976562 C 76.398438 267.898438 73.476562 265.273438 70.25 262.875 C 66.875 260.398438 63.5 258.675781 59.300781 256.351562 C 53.976562 253.5 47.75 249.601562 40.699219 247.199219 C 32.300781 244.425781 18.5 243.75 11.898438 241.726562 C 8.375 240.675781 5.898438 239.925781 3.949219 238.273438 C 2.226562 236.851562 0.726562 235.125 0.351562 232.875 C -0.101562 229.875 2.226562 225 3.726562 221.25 C 5.226562 217.425781 7.175781 213.898438 9.351562 210.148438 C 11.675781 206.175781 14.375 201.824219 17.300781 198.226562 C 20.226562 194.699219 23.824219 189.449219 26.976562 188.625 C 29.226562 188.023438 32.300781 188.476562 33.648438 190.5 C 36.574219 194.925781 30.726562 212.175781 29.898438 223.648438 C 29.074219 235.800781 29.523438 251.851562 28.851562 261.375 C 28.398438 267.226562 27.875 270.074219 27.199219 275.476562 C 26.226562 282.976562 24.949219 294.75 23.375 301.875 C 22.25 306.976562 21.199219 310.199219 19.625 314.699219 C 17.824219 319.875 15.125 329.550781 12.949219 331.273438 C 12.125 331.949219 11.074219 332.023438 10.550781 331.648438 C 10.023438 331.351562 9.875 329.324219 9.875 329.324219 " clip-rule="nonzero"/></clipPath><clipPath id="e65b3067b3"><rect x="0" width="349" y="0" height="332"/></clipPath><clipPath id="8d7cd85a68"><path d="M 289.902344 38 L 294.160156 38 L 294.160156 41.621094 L 289.902344 41.621094 Z M 289.902344 38 " clip-rule="nonzero"/></clipPath><clipPath id="eda1fa7866"><path d="M 294.148438 39.226562 C 292.273438 42.300781 290.476562 41.699219 290.101562 41.101562 C 289.726562 40.425781 290.023438 38.625 290.625 38.175781 C 291.226562 37.726562 293.625 38.324219 293.625 38.324219 " clip-rule="nonzero"/></clipPath><clipPath id="765b6c7ea6"><path d="M 0.902344 0 L 5.160156 0 L 5.160156 3.621094 L 0.902344 3.621094 Z M 0.902344 0 " clip-rule="nonzero"/></clipPath><clipPath id="430138cf6f"><path d="M 5.148438 1.226562 C 3.273438 4.300781 1.476562 3.699219 1.101562 3.101562 C 0.726562 2.425781 1.023438 0.625 1.625 0.175781 C 2.226562 -0.273438 4.625 0.324219 4.625 0.324219 " clip-rule="nonzero"/></clipPath><clipPath id="84226b1aea"><rect x="0" width="6" y="0" height="4"/></clipPath></defs><g clip-path="url(#071fb838dd)"><g clip-path="url(#0e83f10cd5)"><g transform="matrix(1, 0, 0, 1, 25, 24)"><g clip-path="url(#e65b3067b3)"><g clip-path="url(#23ac71530a)"><g clip-path="url(#58b1174a0d)"><rect x="-107.5" width="540" fill="#1e1e1e" height="539.999987" y="-106.499998" fill-opacity="1"/></g></g></g></g></g></g><g clip-path="url(#8d7cd85a68)"><g clip-path="url(#eda1fa7866)"><g transform="matrix(1, 0, 0, 1, 289, 38)"><g clip-path="url(#84226b1aea)"><g clip-path="url(#765b6c7ea6)"><g clip-path="url(#430138cf6f)"><rect x="-371.5" width="540" fill="#1e1e1e" height="539.999987" y="-120.499998" fill-opacity="1"/></g></g></g></g></g></g></svg>