<svg xmlns="http://www.w3.org/2000/svg" xmlns:xlink="http://www.w3.org/1999/xlink" width="500" zoomAndPan="magnify" viewBox="0 0 375 374.999991" height="500" preserveAspectRatio="xMidYMid meet" version="1.0"><defs><clipPath id="dded85879f"><path d="M 136.148438 119.460938 L 217.0625 119.460938 L 217.0625 206.753906 L 136.148438 206.753906 Z M 136.148438 119.460938 " clip-rule="nonzero"/></clipPath><clipPath id="6fd21225ea"><path d="M 149.175781 133.648438 C 151.726562 129.074219 153.824219 126.675781 155.851562 125.398438 C 157.949219 124.125 160.125 123.675781 163.125 122.925781 C 167.773438 121.800781 175.875 120.449219 181.351562 120 C 185.851562 119.625 190.351562 119.398438 193.574219 119.773438 C 195.601562 120.074219 197.101562 120.300781 198.675781 121.125 C 200.25 121.949219 201.226562 123 202.800781 124.726562 C 205.726562 127.875 211.648438 135.824219 213.75 139.574219 C 214.949219 141.75 215.324219 143.023438 215.851562 144.898438 C 216.375 146.773438 216.601562 148.351562 216.75 150.976562 C 217.050781 155.625 217.351562 164.699219 216.300781 170.398438 C 215.398438 175.050781 213.976562 178.5 211.800781 182.625 C 209.175781 187.5 204.375 194.175781 201.074219 197.324219 C 198.976562 199.273438 197.625 200.023438 195.148438 201.226562 C 191.550781 202.875 185.699219 204.601562 181.199219 205.425781 C 177.226562 206.25 172.949219 206.699219 169.648438 206.398438 C 167.023438 206.25 165.449219 205.726562 162.75 204.75 C 158.175781 203.023438 149.398438 198.898438 145.5 195.75 C 142.875 193.726562 141.449219 192 140.101562 189.523438 C 138.523438 186.601562 137.699219 183.226562 137.101562 179.023438 C 136.199219 173.023438 136.273438 161.699219 136.800781 156.601562 C 137.101562 153.824219 137.625 152.324219 138.300781 150.449219 C 138.976562 148.574219 139.949219 146.925781 140.851562 145.273438 C 141.75 143.699219 142.574219 142.273438 143.699219 140.851562 C 144.976562 139.199219 147.148438 137.773438 148.273438 136.050781 C 149.398438 134.550781 149.550781 132.824219 150.675781 131.324219 C 151.949219 129.601562 154.648438 127.199219 156.074219 126.449219 C 156.824219 126 157.273438 125.925781 158.023438 125.925781 C 159.074219 126 160.949219 126.449219 161.851562 126.976562 C 162.523438 127.351562 162.976562 127.648438 163.351562 128.324219 C 163.949219 129.226562 164.699219 130.800781 164.699219 132.074219 C 164.699219 133.351562 164.25 134.851562 163.5 135.898438 C 162.75 136.875 161.25 137.773438 160.199219 138.148438 C 159.523438 138.449219 158.925781 138.449219 158.25 138.375 C 157.574219 138.375 156.976562 138.300781 156.226562 138 C 155.324219 137.550781 153.824219 136.574219 153.148438 135.449219 C 152.550781 134.398438 152.25 132.675781 152.25 131.625 C 152.25 130.875 152.398438 130.351562 152.773438 129.675781 C 153.300781 128.699219 154.351562 127.351562 155.476562 126.75 C 156.523438 126.148438 158.101562 125.851562 159.375 126 C 160.648438 126.226562 162.074219 126.898438 162.898438 127.800781 C 163.800781 128.699219 164.476562 130.125 164.625 131.398438 C 164.773438 132.675781 164.550781 133.949219 163.875 135.300781 C 162.898438 137.175781 160.125 138.75 158.324219 141.074219 C 155.925781 144.148438 152.625 148.949219 151.125 152.476562 C 149.925781 155.101562 149.550781 156.824219 149.101562 159.75 C 148.5 164.175781 148.273438 171.601562 149.101562 176.398438 C 149.699219 180.375 150.074219 183.898438 152.625 186.75 C 156.148438 190.574219 166.425781 193.800781 170.851562 194.699219 C 173.175781 195.148438 174.300781 194.851562 176.476562 194.550781 C 179.851562 194.023438 185.851562 192.523438 189 191.023438 C 191.101562 189.976562 192.449219 188.851562 193.949219 187.425781 C 195.449219 186 196.574219 184.273438 197.851562 182.398438 C 199.273438 180.300781 200.925781 177.675781 202.050781 175.273438 C 203.101562 173.023438 203.851562 171.300781 204.375 168.300781 C 205.273438 163.351562 206.851562 153.523438 205.050781 147.976562 C 203.550781 143.398438 198.300781 139.875 196.273438 136.800781 C 195 134.773438 195.226562 132.675781 193.574219 131.625 C 191.175781 130.199219 186.148438 131.324219 181.949219 131.625 C 176.925781 131.925781 169.199219 132.75 165.300781 133.726562 C 163.125 134.25 161.476562 134.476562 160.273438 135.523438 C 159.148438 136.425781 159 138.523438 158.023438 139.5 C 157.125 140.398438 155.773438 141.148438 154.726562 141.375 C 153.824219 141.523438 152.925781 141.375 152.175781 141.074219 C 151.351562 140.851562 150.601562 140.324219 150 139.648438 C 149.476562 139.050781 148.949219 138.300781 148.800781 137.398438 C 148.574219 136.351562 149.175781 133.648438 149.175781 133.648438 " clip-rule="nonzero"/></clipPath><clipPath id="4fcaf8e084"><path d="M 0.148438 0.460938 L 81.0625 0.460938 L 81.0625 87.753906 L 0.148438 87.753906 Z M 0.148438 0.460938 " clip-rule="nonzero"/></clipPath><clipPath id="e20594a27f"><path d="M 13.175781 14.648438 C 15.726562 10.074219 17.824219 7.675781 19.851562 6.398438 C 21.949219 5.125 24.125 4.675781 27.125 3.925781 C 31.773438 2.800781 39.875 1.449219 45.351562 1 C 49.851562 0.625 54.351562 0.398438 57.574219 0.773438 C 59.601562 1.074219 61.101562 1.300781 62.675781 2.125 C 64.25 2.949219 65.226562 4 66.800781 5.726562 C 69.726562 8.875 75.648438 16.824219 77.75 20.574219 C 78.949219 22.75 79.324219 24.023438 79.851562 25.898438 C 80.375 27.773438 80.601562 29.351562 80.75 31.976562 C 81.050781 36.625 81.351562 45.699219 80.300781 51.398438 C 79.398438 56.050781 77.976562 59.5 75.800781 63.625 C 73.175781 68.5 68.375 75.175781 65.074219 78.324219 C 62.976562 80.273438 61.625 81.023438 59.148438 82.226562 C 55.550781 83.875 49.699219 85.601562 45.199219 86.425781 C 41.226562 87.25 36.949219 87.699219 33.648438 87.398438 C 31.023438 87.25 29.449219 86.726562 26.75 85.75 C 22.175781 84.023438 13.398438 79.898438 9.5 76.75 C 6.875 74.726562 5.449219 73 4.101562 70.523438 C 2.523438 67.601562 1.699219 64.226562 1.101562 60.023438 C 0.199219 54.023438 0.273438 42.699219 0.800781 37.601562 C 1.101562 34.824219 1.625 33.324219 2.300781 31.449219 C 2.976562 29.574219 3.949219 27.925781 4.851562 26.273438 C 5.75 24.699219 6.574219 23.273438 7.699219 21.851562 C 8.976562 20.199219 11.148438 18.773438 12.273438 17.050781 C 13.398438 15.550781 13.550781 13.824219 14.675781 12.324219 C 15.949219 10.601562 18.648438 8.199219 20.074219 7.449219 C 20.824219 7 21.273438 6.925781 22.023438 6.925781 C 23.074219 7 24.949219 7.449219 25.851562 7.976562 C 26.523438 8.351562 26.976562 8.648438 27.351562 9.324219 C 27.949219 10.226562 28.699219 11.800781 28.699219 13.074219 C 28.699219 14.351562 28.25 15.851562 27.5 16.898438 C 26.75 17.875 25.25 18.773438 24.199219 19.148438 C 23.523438 19.449219 22.925781 19.449219 22.25 19.375 C 21.574219 19.375 20.976562 19.300781 20.226562 19 C 19.324219 18.550781 17.824219 17.574219 17.148438 16.449219 C 16.550781 15.398438 16.25 13.675781 16.25 12.625 C 16.25 11.875 16.398438 11.351562 16.773438 10.675781 C 17.300781 9.699219 18.351562 8.351562 19.476562 7.75 C 20.523438 7.148438 22.101562 6.851562 23.375 7 C 24.648438 7.226562 26.074219 7.898438 26.898438 8.800781 C 27.800781 9.699219 28.476562 11.125 28.625 12.398438 C 28.773438 13.675781 28.550781 14.949219 27.875 16.300781 C 26.898438 18.175781 24.125 19.75 22.324219 22.074219 C 19.925781 25.148438 16.625 29.949219 15.125 33.476562 C 13.925781 36.101562 13.550781 37.824219 13.101562 40.75 C 12.5 45.175781 12.273438 52.601562 13.101562 57.398438 C 13.699219 61.375 14.074219 64.898438 16.625 67.75 C 20.148438 71.574219 30.425781 74.800781 34.851562 75.699219 C 37.175781 76.148438 38.300781 75.851562 40.476562 75.550781 C 43.851562 75.023438 49.851562 73.523438 53 72.023438 C 55.101562 70.976562 56.449219 69.851562 57.949219 68.425781 C 59.449219 67 60.574219 65.273438 61.851562 63.398438 C 63.273438 61.300781 64.925781 58.675781 66.050781 56.273438 C 67.101562 54.023438 67.851562 52.300781 68.375 49.300781 C 69.273438 44.351562 70.851562 34.523438 69.050781 28.976562 C 67.550781 24.398438 62.300781 20.875 60.273438 17.800781 C 59 15.773438 59.226562 13.675781 57.574219 12.625 C 55.175781 11.199219 50.148438 12.324219 45.949219 12.625 C 40.925781 12.925781 33.199219 13.75 29.300781 14.726562 C 27.125 15.25 25.476562 15.476562 24.273438 16.523438 C 23.148438 17.425781 23 19.523438 22.023438 20.5 C 21.125 21.398438 19.773438 22.148438 18.726562 22.375 C 17.824219 22.523438 16.925781 22.375 16.175781 22.074219 C 15.351562 21.851562 14.601562 21.324219 14 20.648438 C 13.476562 20.050781 12.949219 19.300781 12.800781 18.398438 C 12.574219 17.351562 13.175781 14.648438 13.175781 14.648438 " clip-rule="nonzero"/></clipPath><clipPath id="dca9bf5cff"><rect x="0" width="82" y="0" height="88"/></clipPath><clipPath id="31911a8424"><path d="M 224 170 L 287 170 L 287 186 L 224 186 Z M 224 170 " clip-rule="nonzero"/></clipPath><clipPath id="02464cf307"><path d="M 225.710938 166.273438 L 287.8125 174.917969 L 285.863281 188.929688 L 223.757812 180.285156 Z M 225.710938 166.273438 " clip-rule="nonzero"/></clipPath><clipPath id="97f12b955d"><path d="M 230.253906 170.1875 C 262.664062 171.292969 277.402344 173.117188 282.128906 174.53125 C 283.792969 175.066406 284.558594 175.550781 285.304688 176.183594 C 285.847656 176.640625 286.101562 176.976562 286.390625 177.625 C 286.714844 178.578125 287.109375 180.070312 286.871094 181.25 C 286.640625 182.351562 285.777344 183.671875 285.078125 184.332031 C 284.625 184.875 284.210938 185.121094 283.503906 185.324219 C 282.625 185.65625 280.863281 185.789062 279.980469 185.589844 C 279.238281 185.488281 278.8125 185.277344 278.261719 184.898438 C 277.515625 184.261719 276.386719 183.121094 276.003906 182.082031 C 275.628906 180.972656 275.601562 179.527344 275.980469 178.445312 C 276.28125 177.351562 277.128906 176.183594 278.046875 175.554688 C 278.976562 174.851562 280.535156 174.535156 281.523438 174.523438 C 282.210938 174.46875 282.65625 174.53125 283.296875 174.84375 C 284.144531 175.265625 285.464844 176.132812 286.082031 177.125 C 286.710938 178.046875 287.046875 179.457031 286.964844 180.582031 C 286.875 181.78125 286.082031 183.109375 285.511719 183.9375 C 285.058594 184.480469 284.71875 184.734375 284.074219 185.023438 C 283.183594 185.429688 282.316406 185.6875 280.566406 185.75 C 275.253906 185.839844 258.128906 182.09375 248.699219 181.3125 C 241.132812 180.714844 231.859375 182.074219 228.183594 180.726562 C 226.601562 180.128906 225.800781 179.335938 225.183594 178.34375 C 224.574219 177.273438 224.335938 175.726562 224.574219 174.546875 C 224.816406 173.367188 225.605469 172.039062 226.621094 171.273438 C 227.550781 170.570312 230.253906 170.1875 230.253906 170.1875 " clip-rule="nonzero"/></clipPath><clipPath id="5b40d71884"><path d="M 0.160156 0.160156 L 63 0.160156 L 63 16 L 0.160156 16 Z M 0.160156 0.160156 " clip-rule="nonzero"/></clipPath><clipPath id="3028d879ad"><path d="M 1.710938 -3.726562 L 63.8125 4.917969 L 61.863281 18.929688 L -0.242188 10.285156 Z M 1.710938 -3.726562 " clip-rule="nonzero"/></clipPath><clipPath id="feb2e4cf33"><path d="M 6.253906 0.1875 C 38.664062 1.292969 53.402344 3.117188 58.128906 4.53125 C 59.792969 5.066406 60.558594 5.550781 61.304688 6.183594 C 61.847656 6.640625 62.101562 6.976562 62.390625 7.625 C 62.714844 8.578125 63.109375 10.070312 62.871094 11.25 C 62.640625 12.351562 61.777344 13.671875 61.078125 14.332031 C 60.625 14.875 60.210938 15.121094 59.503906 15.324219 C 58.625 15.65625 56.863281 15.789062 55.980469 15.589844 C 55.238281 15.488281 54.8125 15.277344 54.261719 14.898438 C 53.515625 14.261719 52.386719 13.121094 52.003906 12.082031 C 51.628906 10.972656 51.601562 9.527344 51.980469 8.445312 C 52.28125 7.351562 53.128906 6.183594 54.046875 5.554688 C 54.976562 4.851562 56.535156 4.535156 57.523438 4.523438 C 58.210938 4.46875 58.65625 4.53125 59.296875 4.84375 C 60.144531 5.265625 61.464844 6.132812 62.082031 7.125 C 62.710938 8.046875 63.046875 9.457031 62.964844 10.582031 C 62.875 11.78125 62.082031 13.109375 61.511719 13.9375 C 61.058594 14.480469 60.71875 14.734375 60.074219 15.023438 C 59.183594 15.429688 58.316406 15.6875 56.566406 15.75 C 51.253906 15.839844 34.128906 12.09375 24.699219 11.3125 C 17.132812 10.714844 7.859375 12.074219 4.183594 10.726562 C 2.601562 10.128906 1.800781 9.335938 1.183594 8.34375 C 0.574219 7.273438 0.335938 5.726562 0.574219 4.546875 C 0.816406 3.367188 1.605469 2.039062 2.621094 1.273438 C 3.550781 0.570312 6.253906 0.1875 6.253906 0.1875 " clip-rule="nonzero"/></clipPath><clipPath id="3d96dfce6b"><rect x="0" width="63" y="0" height="16"/></clipPath><clipPath id="069f993250"><path d="M 207 198 L 251 198 L 251 244 L 207 244 Z M 207 198 " clip-rule="nonzero"/></clipPath><clipPath id="7195cda290"><path d="M 208.550781 197.542969 L 254.851562 203.828125 L 249.351562 244.339844 L 203.050781 238.054688 Z M 208.550781 197.542969 " clip-rule="nonzero"/></clipPath><clipPath id="ad549845fb"><path d="M 216.203125 199.496094 C 239.671875 223.039062 247.28125 230.882812 249.210938 234.628906 C 249.945312 236.089844 250.085938 237.167969 250.023438 238.144531 C 250.0625 238.90625 249.933594 239.34375 249.628906 239.984375 C 249.226562 240.835938 248.261719 242.144531 247.328125 242.699219 C 246.382812 243.328125 244.984375 243.589844 243.925781 243.449219 C 242.792969 243.371094 241.542969 242.519531 240.839844 241.894531 C 240.328125 241.445312 240.015625 241.101562 239.746094 240.457031 C 239.445312 239.507812 239.082031 237.945312 239.304688 236.839844 C 239.535156 235.660156 240.363281 234.335938 241.035156 233.59375 C 241.457031 233.121094 241.859375 232.796875 242.464844 232.578125 C 243.367188 232.246094 244.835938 231.992188 245.953125 232.21875 C 246.988281 232.511719 248.175781 233.277344 248.847656 234.125 C 249.582031 235.058594 250.042969 236.40625 250.035156 237.539062 C 250.09375 238.683594 249.679688 240.140625 249.058594 241.039062 C 248.421875 242.015625 247.296875 242.921875 246.25 243.234375 C 245.195312 243.621094 243.644531 243.410156 242.742188 243.210938 C 242.117188 243.050781 241.867188 242.789062 241.214844 242.324219 C 239.925781 241.238281 237.605469 238.804688 235.695312 236.503906 C 233.160156 233.507812 231.011719 229.8125 227.675781 225.878906 C 222.78125 220.21875 211.078125 210.832031 208.777344 206.660156 C 207.90625 205.179688 207.753906 204.175781 207.90625 203.0625 C 207.996094 201.863281 208.691406 200.441406 209.515625 199.648438 C 210.339844 198.851562 211.71875 198.203125 212.863281 198.210938 C 214.011719 198.214844 216.203125 199.496094 216.203125 199.496094 " clip-rule="nonzero"/></clipPath><clipPath id="9185451400"><path d="M 0.601562 0 L 43.320312 0 L 43.320312 45.839844 L 0.601562 45.839844 Z M 0.601562 0 " clip-rule="nonzero"/></clipPath><clipPath id="c2bb78ae73"><path d="M 1.550781 -0.457031 L 47.851562 5.828125 L 42.351562 46.339844 L -3.949219 40.054688 Z M 1.550781 -0.457031 " clip-rule="nonzero"/></clipPath><clipPath id="8d3e5fa0b7"><path d="M 9.203125 1.496094 C 32.671875 25.039062 40.28125 32.882812 42.210938 36.628906 C 42.945312 38.089844 43.085938 39.167969 43.023438 40.144531 C 43.0625 40.90625 42.933594 41.34375 42.628906 41.984375 C 42.226562 42.835938 41.261719 44.144531 40.328125 44.699219 C 39.382812 45.328125 37.984375 45.589844 36.925781 45.449219 C 35.792969 45.371094 34.542969 44.519531 33.839844 43.894531 C 33.328125 43.445312 33.015625 43.101562 32.746094 42.457031 C 32.445312 41.507812 32.082031 39.945312 32.304688 38.839844 C 32.535156 37.660156 33.363281 36.335938 34.035156 35.59375 C 34.457031 35.121094 34.859375 34.796875 35.464844 34.578125 C 36.367188 34.246094 37.835938 33.992188 38.953125 34.21875 C 39.988281 34.511719 41.175781 35.277344 41.847656 36.125 C 42.582031 37.058594 43.042969 38.40625 43.035156 39.539062 C 43.09375 40.683594 42.679688 42.140625 42.058594 43.039062 C 41.421875 44.015625 40.296875 44.921875 39.25 45.234375 C 38.195312 45.621094 36.644531 45.410156 35.742188 45.210938 C 35.117188 45.050781 34.867188 44.789062 34.214844 44.324219 C 32.925781 43.238281 30.605469 40.804688 28.695312 38.503906 C 26.160156 35.507812 24.011719 31.8125 20.675781 27.878906 C 15.78125 22.21875 4.078125 12.832031 1.777344 8.660156 C 0.90625 7.179688 0.753906 6.175781 0.90625 5.0625 C 0.996094 3.863281 1.691406 2.441406 2.515625 1.648438 C 3.339844 0.851562 4.71875 0.203125 5.863281 0.210938 C 7.011719 0.214844 9.203125 1.496094 9.203125 1.496094 " clip-rule="nonzero"/></clipPath><clipPath id="414948e742"><rect x="0" width="44" y="0" height="46"/></clipPath><clipPath id="293ced45aa"><path d="M 176.632812 212.09375 L 194.457031 212.09375 L 194.457031 260.171875 L 176.632812 260.171875 Z M 176.632812 212.09375 " clip-rule="nonzero"/></clipPath><clipPath id="611cd8f67f"><path d="M 187.726562 216.324219 C 189.675781 242.941406 189.75 243.566406 190.273438 245.257812 C 191.101562 247.636719 193.648438 251.644531 194.175781 253.835938 C 194.398438 255.089844 194.398438 256.089844 194.175781 256.84375 C 194.023438 257.40625 193.800781 257.78125 193.351562 258.21875 C 192.675781 258.847656 191.25 259.660156 190.351562 259.972656 C 189.675781 260.160156 189.226562 260.222656 188.550781 260.097656 C 187.574219 260.035156 185.925781 259.472656 185.175781 259.035156 C 184.574219 258.722656 184.273438 258.40625 183.976562 257.84375 C 183.523438 257.15625 183 255.839844 183.148438 254.902344 C 183.226562 253.960938 183.824219 252.835938 184.648438 252.144531 C 185.398438 251.457031 186.675781 250.894531 187.800781 250.707031 C 188.925781 250.578125 190.425781 250.769531 191.398438 251.207031 C 192.449219 251.644531 193.425781 252.648438 193.949219 253.335938 C 194.25 253.835938 194.398438 254.273438 194.398438 254.839844 C 194.476562 255.652344 194.25 256.96875 193.648438 257.78125 C 193.125 258.59375 191.773438 259.410156 190.949219 259.785156 C 190.351562 260.035156 189.824219 260.160156 189.148438 260.097656 C 188.175781 260.097656 186.523438 259.722656 185.625 259.347656 C 185.023438 259.035156 184.800781 258.910156 184.273438 258.28125 C 183.074219 256.71875 181.125 251.519531 180.148438 248.640625 C 179.398438 246.382812 179.023438 245.195312 178.574219 242.375 C 177.675781 236.613281 175.800781 220.019531 177.074219 215.824219 C 177.523438 214.320312 178.050781 213.695312 179.023438 213.070312 C 179.925781 212.441406 181.5 212.066406 182.625 212.128906 C 183.824219 212.191406 185.25 212.757812 186.148438 213.445312 C 186.976562 214.132812 187.726562 216.324219 187.726562 216.324219 " clip-rule="nonzero"/></clipPath><clipPath id="e258afc8a3"><path d="M 0.632812 0.09375 L 18.457031 0.09375 L 18.457031 48.171875 L 0.632812 48.171875 Z M 0.632812 0.09375 " clip-rule="nonzero"/></clipPath><clipPath id="09c86276eb"><path d="M 11.726562 4.324219 C 13.675781 30.941406 13.75 31.566406 14.273438 33.257812 C 15.101562 35.636719 17.648438 39.644531 18.175781 41.835938 C 18.398438 43.089844 18.398438 44.089844 18.175781 44.84375 C 18.023438 45.40625 17.800781 45.78125 17.351562 46.21875 C 16.675781 46.847656 15.25 47.660156 14.351562 47.972656 C 13.675781 48.160156 13.226562 48.222656 12.550781 48.097656 C 11.574219 48.035156 9.925781 47.472656 9.175781 47.035156 C 8.574219 46.722656 8.273438 46.40625 7.976562 45.84375 C 7.523438 45.15625 7 43.839844 7.148438 42.902344 C 7.226562 41.960938 7.824219 40.835938 8.648438 40.144531 C 9.398438 39.457031 10.675781 38.894531 11.800781 38.707031 C 12.925781 38.578125 14.425781 38.769531 15.398438 39.207031 C 16.449219 39.644531 17.425781 40.648438 17.949219 41.335938 C 18.25 41.835938 18.398438 42.273438 18.398438 42.839844 C 18.476562 43.652344 18.25 44.96875 17.648438 45.78125 C 17.125 46.59375 15.773438 47.410156 14.949219 47.785156 C 14.351562 48.035156 13.824219 48.160156 13.148438 48.097656 C 12.175781 48.097656 10.523438 47.722656 9.625 47.347656 C 9.023438 47.035156 8.800781 46.910156 8.273438 46.28125 C 7.074219 44.71875 5.125 39.519531 4.148438 36.640625 C 3.398438 34.382812 3.023438 33.195312 2.574219 30.375 C 1.675781 24.613281 -0.199219 8.019531 1.074219 3.824219 C 1.523438 2.320312 2.050781 1.695312 3.023438 1.070312 C 3.925781 0.441406 5.5 0.0664062 6.625 0.128906 C 7.824219 0.191406 9.25 0.757812 10.148438 1.445312 C 10.976562 2.132812 11.726562 4.324219 11.726562 4.324219 " clip-rule="nonzero"/></clipPath><clipPath id="d204e76758"><rect x="0" width="19" y="0" height="49"/></clipPath><clipPath id="8a017556cb"><path d="M 109.496094 205.421875 L 151.65625 205.421875 L 151.65625 246.304688 L 109.496094 246.304688 Z M 109.496094 205.421875 " clip-rule="nonzero"/></clipPath><clipPath id="581c1bf4a3"><path d="M 150.226562 214.5 C 134.699219 234.074219 130.5 237.300781 126.898438 239.925781 C 123.976562 242.023438 120.75 244.125 118.574219 245.175781 C 117.226562 245.773438 116.25 246.226562 115.125 246.226562 C 113.925781 246.226562 112.574219 245.699219 111.675781 244.949219 C 110.851562 244.273438 110.023438 243.074219 109.726562 241.949219 C 109.5 240.824219 109.726562 239.25 110.023438 238.351562 C 110.25 237.675781 110.550781 237.300781 111 236.773438 C 111.75 236.101562 113.023438 235.199219 114.148438 234.976562 C 115.273438 234.824219 116.851562 235.125 117.75 235.5 C 118.425781 235.726562 118.800781 236.101562 119.25 236.550781 C 119.699219 237 120.074219 237.375 120.300781 238.050781 C 120.675781 238.949219 120.898438 240.675781 120.824219 241.648438 C 120.75 242.324219 120.601562 242.773438 120.148438 243.375 C 119.625 244.125 118.5 245.324219 117.523438 245.773438 C 116.476562 246.226562 114.976562 246.300781 113.851562 246.074219 C 112.800781 245.773438 111.523438 245.023438 110.851562 244.125 C 110.101562 243.226562 109.726562 241.726562 109.574219 240.75 C 109.5 240.074219 109.574219 239.550781 109.800781 238.949219 C 110.175781 237.976562 110.773438 237.148438 111.898438 235.949219 C 114.675781 233.324219 122.851562 229.726562 127.800781 225.148438 C 133.351562 220.125 139.5 208.726562 143.175781 206.476562 C 144.601562 205.5 145.648438 205.351562 146.851562 205.5 C 148.050781 205.648438 149.476562 206.398438 150.226562 207.300781 C 151.050781 208.199219 151.574219 209.699219 151.574219 210.898438 C 151.574219 212.101562 150.226562 214.5 150.226562 214.5 " clip-rule="nonzero"/></clipPath><clipPath id="e21b28e5ab"><path d="M 0.496094 0.421875 L 42.65625 0.421875 L 42.65625 41.304688 L 0.496094 41.304688 Z M 0.496094 0.421875 " clip-rule="nonzero"/></clipPath><clipPath id="b55120bd60"><path d="M 41.226562 9.5 C 25.699219 29.074219 21.5 32.300781 17.898438 34.925781 C 14.976562 37.023438 11.75 39.125 9.574219 40.175781 C 8.226562 40.773438 7.25 41.226562 6.125 41.226562 C 4.925781 41.226562 3.574219 40.699219 2.675781 39.949219 C 1.851562 39.273438 1.023438 38.074219 0.726562 36.949219 C 0.5 35.824219 0.726562 34.25 1.023438 33.351562 C 1.25 32.675781 1.550781 32.300781 2 31.773438 C 2.75 31.101562 4.023438 30.199219 5.148438 29.976562 C 6.273438 29.824219 7.851562 30.125 8.75 30.5 C 9.425781 30.726562 9.800781 31.101562 10.25 31.550781 C 10.699219 32 11.074219 32.375 11.300781 33.050781 C 11.675781 33.949219 11.898438 35.675781 11.824219 36.648438 C 11.75 37.324219 11.601562 37.773438 11.148438 38.375 C 10.625 39.125 9.5 40.324219 8.523438 40.773438 C 7.476562 41.226562 5.976562 41.300781 4.851562 41.074219 C 3.800781 40.773438 2.523438 40.023438 1.851562 39.125 C 1.101562 38.226562 0.726562 36.726562 0.574219 35.75 C 0.5 35.074219 0.574219 34.550781 0.800781 33.949219 C 1.175781 32.976562 1.773438 32.148438 2.898438 30.949219 C 5.675781 28.324219 13.851562 24.726562 18.800781 20.148438 C 24.351562 15.125 30.5 3.726562 34.175781 1.476562 C 35.601562 0.5 36.648438 0.351562 37.851562 0.5 C 39.050781 0.648438 40.476562 1.398438 41.226562 2.300781 C 42.050781 3.199219 42.574219 4.699219 42.574219 5.898438 C 42.574219 7.101562 41.226562 9.5 41.226562 9.5 " clip-rule="nonzero"/></clipPath><clipPath id="5f008993cf"><rect x="0" width="43" y="0" height="42"/></clipPath><clipPath id="3703c5ffed"><path d="M 74.390625 177.863281 L 127.484375 177.863281 L 127.484375 198.90625 L 74.390625 198.90625 Z M 74.390625 177.863281 " clip-rule="nonzero"/></clipPath><clipPath id="7ae21c3d2c"><path d="M 123.671875 188.175781 C 99.558594 194.773438 93.769531 195.148438 89.167969 196.125 C 85.519531 196.949219 81.792969 199.050781 79.492188 198.898438 C 78.066406 198.75 76.957031 198.148438 76.164062 197.324219 C 75.367188 196.574219 74.65625 195.300781 74.496094 194.25 C 74.339844 193.125 74.65625 191.773438 75.210938 190.800781 C 75.765625 189.824219 76.875 188.925781 77.988281 188.476562 C 79.015625 188.023438 80.523438 187.875 81.636719 188.175781 C 82.746094 188.398438 84.09375 189.375 84.726562 190.050781 C 85.203125 190.5 85.441406 191.023438 85.679688 191.550781 C 85.839844 192.148438 86.078125 192.675781 85.996094 193.273438 C 85.996094 194.25 85.441406 195.824219 84.964844 196.648438 C 84.570312 197.25 84.253906 197.550781 83.617188 197.925781 C 82.746094 198.375 81.238281 198.976562 80.128906 198.898438 C 78.9375 198.898438 77.429688 198.226562 76.636719 197.699219 C 76.082031 197.324219 75.6875 196.875 75.367188 196.425781 C 75.050781 195.898438 74.734375 195.449219 74.65625 194.773438 C 74.496094 193.875 74.496094 192.300781 74.894531 191.324219 C 75.367188 190.273438 76.164062 189.449219 77.429688 188.699219 C 79.175781 187.648438 82.191406 187.125 85.363281 186.375 C 89.882812 185.324219 96.386719 184.800781 102.257812 183.523438 C 108.757812 182.023438 118.832031 177.449219 122.796875 177.898438 C 124.464844 178.125 125.414062 178.875 126.207031 179.773438 C 127 180.675781 127.476562 182.175781 127.476562 183.375 C 127.398438 184.5 126.605469 186 125.890625 186.824219 C 125.257812 187.5 123.671875 188.175781 123.671875 188.175781 " clip-rule="nonzero"/></clipPath><clipPath id="526396f0c4"><path d="M 0.390625 0.863281 L 53.484375 0.863281 L 53.484375 21.90625 L 0.390625 21.90625 Z M 0.390625 0.863281 " clip-rule="nonzero"/></clipPath><clipPath id="46b38053f6"><path d="M 49.671875 11.175781 C 25.558594 17.773438 19.769531 18.148438 15.167969 19.125 C 11.519531 19.949219 7.792969 22.050781 5.492188 21.898438 C 4.066406 21.75 2.957031 21.148438 2.164062 20.324219 C 1.367188 19.574219 0.65625 18.300781 0.496094 17.25 C 0.339844 16.125 0.65625 14.773438 1.210938 13.800781 C 1.765625 12.824219 2.875 11.925781 3.988281 11.476562 C 5.015625 11.023438 6.523438 10.875 7.636719 11.175781 C 8.746094 11.398438 10.09375 12.375 10.726562 13.050781 C 11.203125 13.5 11.441406 14.023438 11.679688 14.550781 C 11.839844 15.148438 12.078125 15.675781 11.996094 16.273438 C 11.996094 17.25 11.441406 18.824219 10.964844 19.648438 C 10.570312 20.25 10.253906 20.550781 9.617188 20.925781 C 8.746094 21.375 7.238281 21.976562 6.128906 21.898438 C 4.9375 21.898438 3.429688 21.226562 2.636719 20.699219 C 2.082031 20.324219 1.6875 19.875 1.367188 19.425781 C 1.050781 18.898438 0.734375 18.449219 0.65625 17.773438 C 0.496094 16.875 0.496094 15.300781 0.894531 14.324219 C 1.367188 13.273438 2.164062 12.449219 3.429688 11.699219 C 5.175781 10.648438 8.191406 10.125 11.363281 9.375 C 15.882812 8.324219 22.386719 7.800781 28.257812 6.523438 C 34.757812 5.023438 44.832031 0.449219 48.796875 0.898438 C 50.464844 1.125 51.414062 1.875 52.207031 2.773438 C 53 3.675781 53.476562 5.175781 53.476562 6.375 C 53.398438 7.5 52.605469 9 51.890625 9.824219 C 51.257812 10.5 49.671875 11.175781 49.671875 11.175781 " clip-rule="nonzero"/></clipPath><clipPath id="7576d37a05"><rect x="0" width="54" y="0" height="22"/></clipPath><clipPath id="9e40806adc"><path d="M 68.6875 136.089844 L 130.347656 136.089844 L 130.347656 155.710938 L 68.6875 155.710938 Z M 68.6875 136.089844 " clip-rule="nonzero"/></clipPath><clipPath id="9dbb419299"><path d="M 125.863281 155.625 C 101.902344 153.976562 100.144531 152.625 96.277344 151.574219 C 90.125 149.925781 76.242188 148.5 72.082031 146.25 C 70.5 145.351562 69.621094 144.601562 69.09375 143.398438 C 68.683594 142.5 68.625 141.226562 68.800781 140.175781 C 68.917969 139.199219 69.386719 138.074219 70.03125 137.398438 C 70.851562 136.574219 72.667969 136.050781 73.664062 136.273438 C 74.484375 136.5 75.304688 137.175781 75.773438 138.074219 C 76.359375 139.125 76.769531 141.375 76.476562 142.726562 C 76.125 144.074219 74.777344 145.574219 73.78125 146.101562 C 73.019531 146.476562 72.023438 146.324219 71.261719 145.949219 C 70.5 145.574219 69.738281 144.75 69.328125 143.925781 C 68.859375 143.023438 68.625 141.75 68.742188 140.773438 C 68.800781 139.726562 69.152344 138.523438 69.738281 137.773438 C 70.5 136.875 71.4375 136.351562 73.253906 136.199219 C 79.054688 135.523438 100.378906 142.800781 110.394531 144.148438 C 117.132812 145.050781 124.398438 143.699219 127.328125 145.125 C 128.617188 145.726562 129.203125 146.476562 129.671875 147.449219 C 130.199219 148.5 130.375 150.074219 130.257812 151.199219 C 130.082031 152.398438 129.4375 153.75 128.675781 154.5 C 127.972656 155.25 125.863281 155.625 125.863281 155.625 " clip-rule="nonzero"/></clipPath><clipPath id="8e1805d684"><path d="M 0.6875 0.0898438 L 62.347656 0.0898438 L 62.347656 19.710938 L 0.6875 19.710938 Z M 0.6875 0.0898438 " clip-rule="nonzero"/></clipPath><clipPath id="0a3af0e34c"><path d="M 57.863281 19.625 C 33.902344 17.976562 32.144531 16.625 28.277344 15.574219 C 22.125 13.925781 8.242188 12.5 4.082031 10.25 C 2.5 9.351562 1.621094 8.601562 1.09375 7.398438 C 0.683594 6.5 0.625 5.226562 0.800781 4.175781 C 0.917969 3.199219 1.386719 2.074219 2.03125 1.398438 C 2.851562 0.574219 4.667969 0.0507812 5.664062 0.273438 C 6.484375 0.5 7.304688 1.175781 7.773438 2.074219 C 8.359375 3.125 8.769531 5.375 8.476562 6.726562 C 8.125 8.074219 6.777344 9.574219 5.78125 10.101562 C 5.019531 10.476562 4.023438 10.324219 3.261719 9.949219 C 2.5 9.574219 1.738281 8.75 1.328125 7.925781 C 0.859375 7.023438 0.625 5.75 0.742188 4.773438 C 0.800781 3.726562 1.152344 2.523438 1.738281 1.773438 C 2.5 0.875 3.4375 0.351562 5.253906 0.199219 C 11.054688 -0.476562 32.378906 6.800781 42.394531 8.148438 C 49.132812 9.050781 56.398438 7.699219 59.328125 9.125 C 60.617188 9.726562 61.203125 10.476562 61.671875 11.449219 C 62.199219 12.5 62.375 14.074219 62.257812 15.199219 C 62.082031 16.398438 61.4375 17.75 60.675781 18.5 C 59.972656 19.25 57.863281 19.625 57.863281 19.625 " clip-rule="nonzero"/></clipPath><clipPath id="3ed7ff600f"><rect x="0" width="63" y="0" height="20"/></clipPath><clipPath id="7629501407"><path d="M 99 83 L 148 83 L 148 129 L 99 129 Z M 99 83 " clip-rule="nonzero"/></clipPath><clipPath id="a756188ea4"><path d="M 100.9375 82.683594 L 153.484375 93.691406 L 146.089844 128.988281 L 93.542969 117.980469 Z M 100.9375 82.683594 " clip-rule="nonzero"/></clipPath><clipPath id="757faac295"><path d="M 138.894531 127.1875 C 114.65625 107.550781 103.628906 97.269531 100.972656 93.113281 C 99.988281 91.605469 99.757812 90.867188 99.695312 89.703125 C 99.632812 88.539062 100.070312 87.175781 100.726562 86.242188 C 101.382812 85.304688 102.789062 84.449219 103.703125 84.105469 C 104.367188 83.863281 104.855469 83.734375 105.515625 83.871094 C 106.5 83.925781 108.011719 84.394531 108.945312 85.050781 C 109.867188 85.78125 110.558594 87.226562 110.902344 88.144531 C 111.148438 88.808594 111.128906 89.261719 111.0625 89.941406 C 110.863281 90.894531 110.378906 92.476562 109.59375 93.308594 C 108.878906 94.15625 107.578125 94.878906 106.457031 95.105469 C 105.335938 95.328125 103.925781 95.109375 102.886719 94.585938 C 101.832031 94.136719 100.785156 92.921875 100.277344 92.046875 C 99.945312 91.441406 99.800781 91.027344 99.71875 90.320312 C 99.699219 89.320312 99.875 87.75 100.398438 86.710938 C 100.980469 85.757812 102.269531 84.726562 103.128906 84.292969 C 103.734375 83.960938 104.222656 83.832031 104.914062 83.824219 C 105.898438 83.875 106.972656 83.871094 108.40625 84.707031 C 112.707031 87.21875 122.089844 100.21875 128.859375 106.3125 C 134.59375 111.496094 143.507812 116.125 145.890625 119.382812 C 146.910156 120.742188 147.164062 121.71875 147.140625 122.9375 C 147.203125 124.101562 146.601562 125.507812 145.796875 126.410156 C 145.085938 127.257812 143.636719 127.949219 142.53125 128.101562 C 141.355469 128.238281 138.894531 127.1875 138.894531 127.1875 " clip-rule="nonzero"/></clipPath><clipPath id="e2f51edb5a"><path d="M 0.601562 0.519531 L 48.359375 0.519531 L 48.359375 45.398438 L 0.601562 45.398438 Z M 0.601562 0.519531 " clip-rule="nonzero"/></clipPath><clipPath id="da1091ce66"><path d="M 1.9375 -0.316406 L 54.484375 10.691406 L 47.089844 45.988281 L -5.457031 34.980469 Z M 1.9375 -0.316406 " clip-rule="nonzero"/></clipPath><clipPath id="f3d2789017"><path d="M 39.894531 44.1875 C 15.65625 24.550781 4.628906 14.269531 1.972656 10.113281 C 0.988281 8.605469 0.757812 7.867188 0.695312 6.703125 C 0.632812 5.539062 1.070312 4.175781 1.726562 3.242188 C 2.382812 2.304688 3.789062 1.449219 4.703125 1.105469 C 5.367188 0.863281 5.855469 0.734375 6.515625 0.871094 C 7.5 0.925781 9.011719 1.394531 9.945312 2.050781 C 10.867188 2.78125 11.558594 4.226562 11.902344 5.144531 C 12.148438 5.808594 12.128906 6.261719 12.0625 6.941406 C 11.863281 7.894531 11.378906 9.476562 10.59375 10.308594 C 9.878906 11.15625 8.578125 11.878906 7.457031 12.105469 C 6.335938 12.328125 4.925781 12.109375 3.886719 11.585938 C 2.832031 11.136719 1.785156 9.921875 1.277344 9.046875 C 0.945312 8.441406 0.800781 8.027344 0.71875 7.320312 C 0.699219 6.320312 0.875 4.75 1.398438 3.710938 C 1.980469 2.757812 3.269531 1.726562 4.128906 1.292969 C 4.734375 0.960938 5.222656 0.832031 5.914062 0.824219 C 6.898438 0.875 7.972656 0.871094 9.40625 1.707031 C 13.707031 4.21875 23.089844 17.21875 29.859375 23.3125 C 35.59375 28.496094 44.507812 33.125 46.890625 36.382812 C 47.910156 37.742188 48.164062 38.71875 48.140625 39.9375 C 48.203125 41.101562 47.601562 42.507812 46.796875 43.410156 C 46.085938 44.257812 44.636719 44.949219 43.53125 45.101562 C 42.355469 45.238281 39.894531 44.1875 39.894531 44.1875 " clip-rule="nonzero"/></clipPath><clipPath id="1b246eb3d8"><rect x="0" width="49" y="0" height="46"/></clipPath><clipPath id="de64b5df2a"><path d="M 167.804688 63.289062 L 180.921875 63.289062 L 180.921875 113.738281 L 167.804688 113.738281 Z M 167.804688 63.289062 " clip-rule="nonzero"/></clipPath><clipPath id="1771b11471"><path d="M 169.351562 108.050781 C 169.726562 76.242188 169.574219 74.160156 169.199219 72.230469 C 168.824219 70.683594 167.773438 69.679688 167.851562 68.445312 C 167.851562 67.289062 168.75 65.898438 169.351562 65.125 C 169.726562 64.585938 170.101562 64.277344 170.773438 64.046875 C 171.601562 63.660156 173.324219 63.351562 174.226562 63.425781 C 174.898438 63.503906 175.351562 63.660156 175.949219 64.046875 C 176.773438 64.507812 177.898438 65.589844 178.425781 66.671875 C 178.875 67.671875 178.875 69.292969 178.800781 70.296875 C 178.648438 70.992188 178.5 71.457031 178.125 71.996094 C 177.523438 72.769531 176.476562 73.925781 175.425781 74.390625 C 174.375 74.777344 172.949219 74.855469 171.898438 74.542969 C 170.773438 74.234375 169.574219 73.230469 168.898438 72.539062 C 168.449219 71.996094 168.226562 71.535156 168.074219 70.917969 C 167.851562 69.914062 167.699219 68.292969 168.074219 67.210938 C 168.449219 66.128906 169.273438 64.972656 170.25 64.355469 C 171.148438 63.660156 172.726562 63.351562 173.625 63.351562 C 174.300781 63.351562 174.824219 63.425781 175.425781 63.734375 C 176.25 64.199219 177.375 64.972656 178.125 66.128906 C 179.175781 67.828125 179.773438 70.144531 180.226562 73.617188 C 181.199219 80.953125 181.050781 102.878906 179.925781 108.4375 C 179.550781 110.289062 179.25 111.140625 178.425781 111.988281 C 177.675781 112.914062 176.101562 113.53125 175.050781 113.6875 C 174.148438 113.765625 173.324219 113.609375 172.574219 113.222656 C 171.824219 112.914062 171.074219 112.453125 170.550781 111.679688 C 169.875 110.753906 169.351562 108.050781 169.351562 108.050781 " clip-rule="nonzero"/></clipPath><clipPath id="a00879dd02"><path d="M 0.804688 0.289062 L 13.921875 0.289062 L 13.921875 50.738281 L 0.804688 50.738281 Z M 0.804688 0.289062 " clip-rule="nonzero"/></clipPath><clipPath id="2a59b54543"><path d="M 2.351562 45.050781 C 2.726562 13.242188 2.574219 11.160156 2.199219 9.230469 C 1.824219 7.683594 0.773438 6.679688 0.851562 5.445312 C 0.851562 4.289062 1.75 2.898438 2.351562 2.125 C 2.726562 1.585938 3.101562 1.277344 3.773438 1.046875 C 4.601562 0.660156 6.324219 0.351562 7.226562 0.425781 C 7.898438 0.503906 8.351562 0.660156 8.949219 1.046875 C 9.773438 1.507812 10.898438 2.589844 11.425781 3.671875 C 11.875 4.671875 11.875 6.292969 11.800781 7.296875 C 11.648438 7.992188 11.5 8.457031 11.125 8.996094 C 10.523438 9.769531 9.476562 10.925781 8.425781 11.390625 C 7.375 11.777344 5.949219 11.855469 4.898438 11.542969 C 3.773438 11.234375 2.574219 10.230469 1.898438 9.539062 C 1.449219 8.996094 1.226562 8.535156 1.074219 7.917969 C 0.851562 6.914062 0.699219 5.292969 1.074219 4.210938 C 1.449219 3.128906 2.273438 1.972656 3.25 1.355469 C 4.148438 0.660156 5.726562 0.351562 6.625 0.351562 C 7.300781 0.351562 7.824219 0.425781 8.425781 0.734375 C 9.25 1.199219 10.375 1.972656 11.125 3.128906 C 12.175781 4.828125 12.773438 7.144531 13.226562 10.617188 C 14.199219 17.953125 14.050781 39.878906 12.925781 45.4375 C 12.550781 47.289062 12.25 48.140625 11.425781 48.988281 C 10.675781 49.914062 9.101562 50.53125 8.050781 50.6875 C 7.148438 50.765625 6.324219 50.609375 5.574219 50.222656 C 4.824219 49.914062 4.074219 49.453125 3.550781 48.679688 C 2.875 47.753906 2.351562 45.050781 2.351562 45.050781 " clip-rule="nonzero"/></clipPath><clipPath id="c8694cfc6e"><rect x="0" width="14" y="0" height="51"/></clipPath><clipPath id="e56a953748"><path d="M 204 78 L 244 78 L 244 122 L 204 122 Z M 204 78 " clip-rule="nonzero"/></clipPath><clipPath id="d9d9f8d18d"><path d="M 196.367188 90.300781 L 241.652344 76.894531 L 251.429688 109.921875 L 206.144531 123.328125 Z M 196.367188 90.300781 " clip-rule="nonzero"/></clipPath><clipPath id="bc18a52f49"><path d="M 205.6875 113.164062 C 228.695312 87.582031 232.765625 80.980469 234.859375 79.34375 C 235.496094 78.84375 235.78125 78.757812 236.523438 78.617188 C 237.429688 78.503906 239.109375 78.632812 240.070312 78.972656 C 240.679688 79.183594 241.074219 79.457031 241.53125 79.949219 C 242.21875 80.683594 243.078125 81.996094 243.324219 83.09375 C 243.5 84.214844 243.164062 85.722656 242.800781 86.613281 C 242.519531 87.242188 242.246094 87.636719 241.753906 88.097656 C 240.996094 88.710938 239.59375 89.519531 238.523438 89.601562 C 237.402344 89.777344 235.875 89.367188 235.035156 88.910156 C 234.402344 88.628906 234.007812 88.355469 233.601562 87.773438 C 233.058594 86.992188 232.34375 85.640625 232.242188 84.5 C 232.136719 83.355469 232.640625 81.878906 233.09375 81.039062 C 233.46875 80.457031 233.746094 80.0625 234.347656 79.730469 C 235.128906 79.1875 236.574219 78.523438 237.664062 78.511719 C 238.828125 78.480469 240.214844 78.929688 241.117188 79.601562 C 242.019531 80.273438 242.804688 81.605469 243.152344 82.519531 C 243.417969 83.144531 243.472656 83.597656 243.378906 84.332031 C 243.25 85.226562 242.859375 86.28125 242.152344 87.585938 C 240.761719 90.03125 237.785156 93.183594 234.523438 96.964844 C 229.234375 103.144531 217.355469 118.234375 212.847656 120.976562 C 211.320312 121.898438 210.34375 122.03125 209.136719 121.921875 C 208.003906 121.785156 206.625 121.097656 205.824219 120.242188 C 205.003906 119.3125 204.410156 117.84375 204.378906 116.679688 C 204.421875 115.496094 205.6875 113.164062 205.6875 113.164062 " clip-rule="nonzero"/></clipPath><clipPath id="9f18bd43f0"><path d="M 0.238281 0.480469 L 39.601562 0.480469 L 39.601562 44 L 0.238281 44 Z M 0.238281 0.480469 " clip-rule="nonzero"/></clipPath><clipPath id="5ffedd1034"><path d="M -7.632812 12.300781 L 37.652344 -1.105469 L 47.429688 31.921875 L 2.144531 45.328125 Z M -7.632812 12.300781 " clip-rule="nonzero"/></clipPath><clipPath id="657872d8a5"><path d="M 1.6875 35.164062 C 24.695312 9.582031 28.765625 2.980469 30.859375 1.34375 C 31.496094 0.84375 31.78125 0.757812 32.523438 0.617188 C 33.429688 0.503906 35.109375 0.632812 36.070312 0.972656 C 36.679688 1.183594 37.074219 1.457031 37.53125 1.949219 C 38.21875 2.683594 39.078125 3.996094 39.324219 5.09375 C 39.5 6.214844 39.164062 7.722656 38.800781 8.613281 C 38.519531 9.242188 38.246094 9.636719 37.753906 10.097656 C 36.996094 10.710938 35.59375 11.519531 34.523438 11.601562 C 33.402344 11.777344 31.875 11.367188 31.035156 10.910156 C 30.402344 10.628906 30.007812 10.355469 29.601562 9.773438 C 29.058594 8.992188 28.34375 7.640625 28.242188 6.5 C 28.136719 5.355469 28.640625 3.878906 29.09375 3.039062 C 29.46875 2.457031 29.746094 2.0625 30.347656 1.730469 C 31.128906 1.1875 32.574219 0.523438 33.664062 0.511719 C 34.828125 0.480469 36.214844 0.929688 37.117188 1.601562 C 38.019531 2.273438 38.804688 3.605469 39.152344 4.519531 C 39.417969 5.144531 39.472656 5.597656 39.378906 6.332031 C 39.25 7.226562 38.859375 8.28125 38.152344 9.585938 C 36.761719 12.03125 33.785156 15.183594 30.523438 18.964844 C 25.234375 25.144531 13.355469 40.234375 8.847656 42.976562 C 7.320312 43.898438 6.34375 44.03125 5.136719 43.921875 C 4.003906 43.785156 2.625 43.097656 1.824219 42.242188 C 1.003906 41.3125 0.410156 39.84375 0.378906 38.679688 C 0.421875 37.496094 1.6875 35.164062 1.6875 35.164062 " clip-rule="nonzero"/></clipPath><clipPath id="099366d676"><rect x="0" width="40" y="0" height="44"/></clipPath><clipPath id="d8a5a28c84"><path d="M 226 115 L 283 115 L 283 151 L 226 151 Z M 226 115 " clip-rule="nonzero"/></clipPath><clipPath id="fe278d0a29"><path d="M 286.246094 126.050781 L 229.777344 153.304688 L 223.628906 140.5625 L 280.097656 113.3125 Z M 286.246094 126.050781 " clip-rule="nonzero"/></clipPath><clipPath id="1c4f07548b"><path d="M 280.292969 125.316406 C 252.714844 142.371094 239.4375 149.03125 234.71875 150.472656 C 233.035156 150.953125 232.128906 150.972656 231.160156 150.859375 C 230.457031 150.78125 230.054688 150.640625 229.457031 150.265625 C 228.660156 149.648438 227.5 148.628906 227.046875 147.515625 C 226.625 146.46875 226.613281 144.890625 226.828125 143.957031 C 226.90625 143.25 227.113281 142.820312 227.589844 142.253906 C 228.136719 141.492188 229.527344 140.402344 230.371094 140.082031 C 231.046875 139.753906 231.515625 139.695312 232.1875 139.703125 C 233.160156 139.816406 234.730469 140.140625 235.628906 140.792969 C 236.558594 141.507812 237.378906 142.695312 237.664062 143.804688 C 238.019531 144.882812 237.964844 146.324219 237.546875 147.359375 C 237.164062 148.460938 236.042969 149.585938 235.226562 150.144531 C 234.6875 150.574219 234.28125 150.769531 233.574219 150.859375 C 232.632812 150.980469 231.058594 150.992188 229.992188 150.507812 C 228.957031 150.089844 227.898438 149.101562 227.339844 148.121094 C 226.75 147.074219 226.671875 145.53125 226.6875 144.523438 C 226.761719 143.820312 226.902344 143.417969 227.28125 142.820312 C 227.796875 141.988281 228.375 141.292969 229.796875 140.273438 C 234.167969 137.25 250.492188 130.871094 258.777344 126.289062 C 265.402344 122.59375 272.367188 116.316406 276.171875 115.398438 C 277.820312 115.015625 278.921875 115.234375 279.988281 115.71875 C 281.089844 116.269531 282.144531 117.425781 282.601562 118.539062 C 283.054688 119.652344 283.132812 121.195312 282.714844 122.398438 C 282.328125 123.5 280.292969 125.316406 280.292969 125.316406 " clip-rule="nonzero"/></clipPath><clipPath id="d980364f7e"><path d="M 0.558594 0 L 57 0 L 57 36 L 0.558594 36 Z M 0.558594 0 " clip-rule="nonzero"/></clipPath><clipPath id="a82729f65f"><path d="M 60.246094 11.050781 L 3.777344 38.304688 L -2.371094 25.5625 L 54.097656 -1.6875 Z M 60.246094 11.050781 " clip-rule="nonzero"/></clipPath><clipPath id="e18ec78f71"><path d="M 54.292969 10.316406 C 26.714844 27.371094 13.4375 34.03125 8.71875 35.472656 C 7.035156 35.953125 6.128906 35.972656 5.160156 35.859375 C 4.457031 35.78125 4.054688 35.640625 3.457031 35.265625 C 2.660156 34.648438 1.5 33.628906 1.046875 32.515625 C 0.625 31.46875 0.613281 29.890625 0.828125 28.957031 C 0.90625 28.25 1.113281 27.820312 1.589844 27.253906 C 2.136719 26.492188 3.527344 25.402344 4.371094 25.082031 C 5.046875 24.753906 5.515625 24.695312 6.1875 24.703125 C 7.160156 24.816406 8.730469 25.140625 9.628906 25.792969 C 10.558594 26.507812 11.378906 27.695312 11.664062 28.804688 C 12.019531 29.882812 11.964844 31.324219 11.546875 32.359375 C 11.164062 33.460938 10.042969 34.585938 9.226562 35.144531 C 8.6875 35.574219 8.28125 35.769531 7.574219 35.859375 C 6.632812 35.980469 5.058594 35.992188 3.992188 35.507812 C 2.957031 35.089844 1.898438 34.101562 1.339844 33.121094 C 0.75 32.074219 0.671875 30.53125 0.6875 29.523438 C 0.761719 28.820312 0.902344 28.417969 1.28125 27.820312 C 1.796875 26.988281 2.375 26.292969 3.796875 25.273438 C 8.167969 22.25 24.492188 15.871094 32.777344 11.289062 C 39.402344 7.59375 46.367188 1.316406 50.171875 0.398438 C 51.820312 0.015625 52.921875 0.234375 53.988281 0.71875 C 55.089844 1.269531 56.144531 2.425781 56.601562 3.539062 C 57.054688 4.652344 57.132812 6.195312 56.714844 7.398438 C 56.328125 8.5 54.292969 10.316406 54.292969 10.316406 " clip-rule="nonzero"/></clipPath><clipPath id="cae0f2ed3e"><rect x="0" width="57" y="0" height="36"/></clipPath></defs><g clip-path="url(#dded85879f)"><g clip-path="url(#6fd21225ea)"><g transform="matrix(1, 0, 0, 1, 136, 119)"><g clip-path="url(#dca9bf5cff)"><g clip-path="url(#4fcaf8e084)"><g clip-path="url(#e20594a27f)"><rect x="-218.5" width="540" fill="#1e1e1e" height="539.999987" y="-201.499998" fill-opacity="1"/></g></g></g></g></g></g><g clip-path="url(#31911a8424)"><g clip-path="url(#02464cf307)"><g clip-path="url(#97f12b955d)"><g transform="matrix(1, 0, 0, 1, 224, 170)"><g clip-path="url(#3d96dfce6b)"><g clip-path="url(#5b40d71884)"><g clip-path="url(#3028d879ad)"><g clip-path="url(#feb2e4cf33)"><path fill="#1e1e1e" d="M -0.886719 -6.710938 L 67.046875 2.742188 L 64.347656 22.132812 L -3.585938 12.675781 Z M -0.886719 -6.710938 " fill-opacity="1" fill-rule="nonzero"/></g></g></g></g></g></g></g></g><g clip-path="url(#069f993250)"><g clip-path="url(#7195cda290)"><g clip-path="url(#ad549845fb)"><g transform="matrix(1, 0, 0, 1, 207, 198)"><g clip-path="url(#414948e742)"><g clip-path="url(#9185451400)"><g clip-path="url(#c2bb78ae73)"><g clip-path="url(#8d3e5fa0b7)"><path fill="#1e1e1e" d="M -0.769531 -3.71875 L 50.957031 3.300781 L 44.671875 49.601562 L -7.054688 42.582031 Z M -0.769531 -3.71875 " fill-opacity="1" fill-rule="nonzero"/></g></g></g></g></g></g></g></g><g clip-path="url(#293ced45aa)"><g clip-path="url(#611cd8f67f)"><g transform="matrix(1, 0, 0, 1, 176, 212)"><g clip-path="url(#d204e76758)"><g clip-path="url(#e258afc8a3)"><g clip-path="url(#09c86276eb)"><rect x="-258.5" width="540" fill="#1e1e1e" height="539.999987" y="-294.499998" fill-opacity="1"/></g></g></g></g></g></g><g clip-path="url(#8a017556cb)"><g clip-path="url(#581c1bf4a3)"><g transform="matrix(1, 0, 0, 1, 109, 205)"><g clip-path="url(#5f008993cf)"><g clip-path="url(#e21b28e5ab)"><g clip-path="url(#b55120bd60)"><rect x="-191.5" width="540" fill="#1e1e1e" height="539.999987" y="-287.499998" fill-opacity="1"/></g></g></g></g></g></g><g clip-path="url(#3703c5ffed)"><g clip-path="url(#7ae21c3d2c)"><g transform="matrix(1, 0, 0, 1, 74, 177)"><g clip-path="url(#7576d37a05)"><g clip-path="url(#526396f0c4)"><g clip-path="url(#46b38053f6)"><rect x="-156.5" width="540" fill="#1e1e1e" height="539.999987" y="-259.499998" fill-opacity="1"/></g></g></g></g></g></g><g clip-path="url(#9e40806adc)"><g clip-path="url(#9dbb419299)"><g transform="matrix(1, 0, 0, 1, 68, 136)"><g clip-path="url(#3ed7ff600f)"><g clip-path="url(#8e1805d684)"><g clip-path="url(#0a3af0e34c)"><rect x="-150.5" width="540" fill="#1e1e1e" height="539.999987" y="-218.499998" fill-opacity="1"/></g></g></g></g></g></g><g clip-path="url(#7629501407)"><g clip-path="url(#a756188ea4)"><g clip-path="url(#757faac295)"><g transform="matrix(1, 0, 0, 1, 99, 83)"><g clip-path="url(#1b246eb3d8)"><g clip-path="url(#e2f51edb5a)"><g clip-path="url(#da1091ce66)"><g clip-path="url(#f3d2789017)"><path fill="#1e1e1e" d="M -0.210938 -3.601562 L 57.925781 8.578125 L 49.359375 49.464844 L -8.777344 37.285156 Z M -0.210938 -3.601562 " fill-opacity="1" fill-rule="nonzero"/></g></g></g></g></g></g></g></g><g clip-path="url(#de64b5df2a)"><g clip-path="url(#1771b11471)"><g transform="matrix(1, 0, 0, 1, 167, 63)"><g clip-path="url(#c8694cfc6e)"><g clip-path="url(#a00879dd02)"><g clip-path="url(#2a59b54543)"><rect x="-249.5" width="540" fill="#1e1e1e" height="539.999987" y="-145.499998" fill-opacity="1"/></g></g></g></g></g></g><g clip-path="url(#e56a953748)"><g clip-path="url(#d9d9f8d18d)"><g clip-path="url(#bc18a52f49)"><g transform="matrix(1, 0, 0, 1, 204, 78)"><g clip-path="url(#099366d676)"><g clip-path="url(#9f18bd43f0)"><g clip-path="url(#5ffedd1034)"><g clip-path="url(#657872d8a5)"><path fill="#1e1e1e" d="M -11.117188 10.40625 L 39.546875 -4.589844 L 50.871094 33.667969 L 0.207031 48.664062 Z M -11.117188 10.40625 " fill-opacity="1" fill-rule="nonzero"/></g></g></g></g></g></g></g></g><g clip-path="url(#d8a5a28c84)"><g clip-path="url(#fe278d0a29)"><g clip-path="url(#1c4f07548b)"><g transform="matrix(1, 0, 0, 1, 226, 115)"><g clip-path="url(#cae0f2ed3e)"><g clip-path="url(#d980364f7e)"><g clip-path="url(#a82729f65f)"><g clip-path="url(#e18ec78f71)"><path fill="#1e1e1e" d="M 64.0625 12.097656 L 2.289062 41.90625 L -6.21875 24.277344 L 55.554688 -5.53125 Z M 64.0625 12.097656 " fill-opacity="1" fill-rule="nonzero"/></g></g></g></g></g></g></g></g></svg>